<svg id="Layer_1" height="512" viewBox="0 0 64 64" width="512" xmlns="http://www.w3.org/2000/svg" data-name="Layer 1"><circle cx="32" cy="32" fill="#a5e7f9" r="29"/><circle cx="23" cy="33" fill="#30c8fc" opacity=".5" r="14"/><path d="m32 18a21.573 21.573 0 0 1 -3.067-.217c-4.893-.707-7.933-2.923-7.933-5.783 0-2.124 1.729-3.953 4.743-5.017a19.05 19.05 0 0 1 6.257-.983 18.53 18.53 0 0 1 6.882 1.224c3.583 1.476 4.118 3.628 4.118 4.776 0 2.659-2.607 4.759-6.974 5.619a20.854 20.854 0 0 1 -4.026.381z" fill="#30c8fc" opacity=".5"/><circle cx="53" cy="25" fill="#30c8fc" opacity=".5" r="5"/><circle cx="14" cy="18" fill="#30c8fc" opacity=".5" r="4"/><path d="m23 44a12 12 0 1 0 -12-12 12 12 0 0 0 12 12z" fill="#fbb03b"/><circle cx="19" cy="32" fill="#ce7c29" r="3"/><path d="m38.118 8.072a16.451 16.451 0 0 0 -6.118-1.072 17.108 17.108 0 0 0 -5.591.869c-2.075.731-3.409 1.862-3.409 3.131 0 1.777 2.611 3.282 6.219 3.8a19.438 19.438 0 0 0 2.781.2 18.886 18.886 0 0 0 3.64-.344c3.16-.621 5.36-2.023 5.36-3.656 0-1.158-1.113-2.2-2.882-2.928z" fill="#d2f294"/><circle cx="53" cy="24" fill="#f7aa9a" r="3"/><circle cx="14" cy="17" fill="#f7aa9a" r="2"/><path d="m32 59a29 29 0 0 1 -28.975-28c-.011.333-.025.665-.025 1a29 29 0 0 0 58 0c0-.335-.014-.667-.025-1a29 29 0 0 1 -28.975 28z" fill="#30c8fc"/><g fill="#fff"><path d="m38.068 57a1.5 1.5 0 0 1 -.253-2.979 20.7 20.7 0 0 0 16.878-23.915 1.5 1.5 0 1 1 2.956-.51 23.7 23.7 0 0 1 -19.324 27.382 1.5 1.5 0 0 1 -.257.022z" opacity=".6"/><circle cx="49" cy="17" opacity=".6" r="3"/><circle cx="45.5" cy="12.5" opacity=".6" r="1.5"/><circle cx="29.5" cy="26.5" opacity=".6" r="1.5"/><circle cx="27.75" cy="24.25" opacity=".6" r=".75"/></g><path d="m23 42a12 12 0 0 1 -11.95-11c-.027.331-.05.662-.05 1a12 12 0 0 0 24 0c0-.338-.023-.669-.05-1a12 12 0 0 1 -11.95 11z" fill="#ce7c29"/><path d="m53 25a2.99 2.99 0 0 1 -2.816-2 2.962 2.962 0 0 0 -.184 1 3 3 0 0 0 6 0 2.962 2.962 0 0 0 -.184-1 2.99 2.99 0 0 1 -2.816 2z" fill="#f9653d"/><path d="m35.64 12.656a18.886 18.886 0 0 1 -3.64.344 19.438 19.438 0 0 1 -2.781-.2c-2.9-.419-5.158-1.476-5.929-2.8a1.98 1.98 0 0 0 -.29 1c0 1.777 2.611 3.282 6.219 3.8a19.438 19.438 0 0 0 2.781.2 18.886 18.886 0 0 0 3.64-.344c3.16-.621 5.36-2.023 5.36-3.656a1.976 1.976 0 0 0 -.3-1.007c-.691 1.193-2.569 2.173-5.06 2.663z" fill="#c0d83a"/><path d="m32 62a30 30 0 1 0 -30-30 30.034 30.034 0 0 0 30 30zm0-58a28 28 0 1 1 -28 28 28.032 28.032 0 0 1 28-28z"/><path d="m23 45a13 13 0 1 0 -13-13 13.015 13.015 0 0 0 13 13zm0-24a11 11 0 1 1 -11 11 11.013 11.013 0 0 1 11-11z"/><path d="m19 36a4 4 0 1 0 -4-4 4 4 0 0 0 4 4zm0-6a2 2 0 1 1 -2 2 2 2 0 0 1 2-2z"/><path d="m43 32a19.973 19.973 0 0 1 -.679 5.149l-1.908-.6c.117-.451.225-.906.308-1.371a1 1 0 0 0 -1.969-.35 15.971 15.971 0 0 1 -15.752 13.172 1 1 0 0 0 0 2 17.978 17.978 0 0 0 11.547-4.178l1.471 1.358a20.1 20.1 0 0 1 -3.495 2.412 1 1 0 0 0 .954 1.758c.422-.229.832-.472 1.234-.726l1.089 1.676a24 24 0 0 1 -4.159 2.1 1 1 0 0 0 .359 1.932.99.99 0 0 0 .36-.068 25.9 25.9 0 0 0 5.31-2.81c.019-.01.04-.014.059-.026s.031-.036.051-.05a26.077 26.077 0 0 0 5.12-4.654s.011-.006.016-.011.022-.039.038-.056c.289-.347.58-.693.852-1.056a1 1 0 1 0 -1.6-1.2c-.024.032-.05.06-.074.091l-1.423-1.447a21.974 21.974 0 0 0 3.21-6.25.836.836 0 0 0 .04-.079c.008-.024 0-.048.008-.072a21.971 21.971 0 0 0 1.033-6.644c0-.412-.025-.821-.047-1.23l2-.312c.029.512.047 1.027.047 1.542a24.25 24.25 0 0 1 -.48 4.8 1 1 0 0 0 .78 1.18.976.976 0 0 0 .2.02 1 1 0 0 0 .979-.8 25.591 25.591 0 0 0 .36-7.991c0-.02 0-.039 0-.059s-.009-.019-.011-.029a25.968 25.968 0 0 0 -2.952-9.48 1 1 0 1 0 -1.758.952 23.961 23.961 0 0 1 2.607 7.876l-1.969.308a22 22 0 0 0 -.806-3.5 1 1 0 0 0 -1.905.61 19.993 19.993 0 0 1 .955 6.113zm-1.293 7.053a19.987 19.987 0 0 1 -4.239 6.747l-1.468-1.356a17.879 17.879 0 0 0 3.8-5.993zm-.865 8.983a24.073 24.073 0 0 1 -3.392 3.129l-1.1-1.689a22.009 22.009 0 0 0 3.091-2.864z"/><path d="m15 46h-1a1 1 0 0 0 0 2h1a1 1 0 0 0 0-2z"/><path d="m51 44h-1a1 1 0 0 0 0 2h1a1 1 0 0 0 0-2z"/><path d="m27 56h-1a1 1 0 0 0 0 2h1a1 1 0 0 0 0-2z"/><path d="m56 35h-1a1 1 0 0 0 0 2h1a1 1 0 0 0 0-2z"/><path d="m38 27a1 1 0 0 0 0-2h-1a1 1 0 0 0 0 2z"/><path d="m32 16c5.7 0 10-2.149 10-5 0-1.585-1.332-2.951-3.492-3.854a17.2 17.2 0 0 0 -6.508-1.146 17.817 17.817 0 0 0 -5.975.943h-.008c-2.465.896-4.017 2.348-4.017 4.057 0 2.851 4.3 5 10 5zm-6.591-6.579v1.4a1 1 0 0 0 2 0v-2.221a15.8 15.8 0 0 1 3.591-.572v2.972a1 1 0 0 0 2 0v-2.972a15.214 15.214 0 0 1 4.118.743v1.934a1 1 0 0 0 2 0v-.949a1.769 1.769 0 0 1 .882 1.244c0 .769-1.233 1.756-3.36 2.383v-2.383a1 1 0 0 0 -2 0v2.813a18.255 18.255 0 0 1 -2.64.187c-.624 0-1.218-.03-1.781-.083v-3.352a1 1 0 1 0 -2 0v3.035c-2.649-.592-4.219-1.733-4.219-2.6 0-.488.5-1.063 1.409-1.579z"/><path d="m53 28a4 4 0 1 0 -4-4 4 4 0 0 0 4 4zm0-6a2 2 0 1 1 -2 2 2 2 0 0 1 2-2z"/><path d="m14 20a3 3 0 1 0 -3-3 3 3 0 0 0 3 3zm0-4a1 1 0 1 1 -1 1 1 1 0 0 1 1-1z"/></svg>