<svg id="Layer_1" height="512" viewBox="0 0 64 64" width="512" xmlns="http://www.w3.org/2000/svg" data-name="Layer 1"><path d="m29 56h18a14 14 0 0 0 14-14v-20a14 14 0 0 0 -14-14h-18a14 14 0 0 0 -14 14v4h4a14 14 0 0 1 14-14h10a14 14 0 0 1 14 14v12a14 14 0 0 1 -14 14h-10a14 14 0 0 1 -14-14h-4v4a14 14 0 0 0 14 14z" fill="#fbb03b"/><path d="m31 29a3 3 0 0 1 -3 3 3 3 0 0 1 0 6h-9a14 14 0 0 0 14 14h10a14 14 0 0 0 14-14v-12a14 14 0 0 0 -14-14h-10a14 14 0 0 0 -14 14h9a3 3 0 0 1 3 3z" fill="#d2f294"/><path d="m43 12h-10a13.951 13.951 0 0 0 -10.151 4.377 12.277 12.277 0 0 1 6.742-2.011h8.818a12.344 12.344 0 0 1 12.344 12.344v10.58a12.344 12.344 0 0 1 -12.344 12.344h-8.818a12.277 12.277 0 0 1 -6.742-2.011 13.951 13.951 0 0 0 10.151 4.377h10a14 14 0 0 0 14-14v-12a14 14 0 0 0 -14-14z" fill="#aedd3c"/><path d="m31 29a3 3 0 0 0 -3-3h-14a3 3 0 0 0 0 6h14a3 3 0 0 0 3-3z" fill="#f9c0f9"/><path d="m28 38a3 3 0 0 0 0-6h-14a3 3 0 0 0 0 6z" fill="#f9c0f9"/><path d="m44 32-4-4v4 4z" fill="#faa4fc"/><circle cx="47" cy="42" fill="#fbb03b" r="5"/><path d="m47 45a5 5 0 0 1 -4.9-4 5 5 0 1 0 9.8 0 5 5 0 0 1 -4.9 4z" fill="#ce7c29"/><circle cx="46.96" cy="40.14" fill="#fff" opacity=".4" r="1.64"/><circle cx="49.86" cy="41.88" fill="#fff" opacity=".4" r=".82"/><path d="m28 30h-14a2.99 2.99 0 0 1 -2.816-2 2.962 2.962 0 0 0 -.184 1 3 3 0 0 0 3 3h14a3 3 0 0 0 3-3 2.962 2.962 0 0 0 -.184-1 2.99 2.99 0 0 1 -2.816 2z" fill="#faa4fc"/><path d="m14 34h14a2.99 2.99 0 0 1 2.816 2 2.962 2.962 0 0 0 .184-1 3 3 0 0 0 -3-3h-14a3 3 0 0 0 -3 3 2.962 2.962 0 0 0 .184 1 2.99 2.99 0 0 1 2.816-2z" fill="#faa4fc"/><g fill="#ce7c29"><path d="m19 26a14 14 0 0 1 14-14h-2a14 14 0 0 0 -14 14z"/><path d="m33 52a14 14 0 0 1 -14-14h-2a14 14 0 0 0 14 14z"/><path d="m47 8h-2a14 14 0 0 1 14 14v20a14 14 0 0 1 -14 14h2a14 14 0 0 0 14-14v-20a14 14 0 0 0 -14-14z"/></g><path d="m46.358 23.54a1.3 1.3 0 0 1 -.13.081 1.5 1.5 0 0 1 -2.039-.583 7.9 7.9 0 0 0 -.433-.693 1.5 1.5 0 0 1 2.463-1.714q.322.465.592.95a1.5 1.5 0 0 1 -.453 1.959z" fill="#fff" opacity=".4"/><path d="m42.217 19.614a1.5 1.5 0 0 1 -1.511.119 7.973 7.973 0 0 0 -8.023.628 1.5 1.5 0 0 1 -1.714-2.461 10.973 10.973 0 0 1 11.044-.864 1.5 1.5 0 0 1 .2 2.58z" fill="#fff" opacity=".4"/><path d="m29 57h18a15.017 15.017 0 0 0 15-15v-20a15.017 15.017 0 0 0 -15-15h-18a15.017 15.017 0 0 0 -15 15v3a3.983 3.983 0 0 0 -2.618 7 3.983 3.983 0 0 0 2.618 7v3a15.017 15.017 0 0 0 15 15zm-17-28a2 2 0 0 1 2-2h14a2 2 0 0 1 0 4h-14a2 2 0 0 1 -2-2zm18.618 3a3.983 3.983 0 0 0 -2.618-7h-7.949a13.009 13.009 0 0 1 12.949-12h10a13.015 13.015 0 0 1 13 13v12a13.015 13.015 0 0 1 -13 13h-10a13.009 13.009 0 0 1 -12.949-12h7.949a3.983 3.983 0 0 0 2.618-7zm-18.618 3a2 2 0 0 1 2-2h14a2 2 0 0 1 0 4h-14a2 2 0 0 1 -2-2zm6.051 4a15.006 15.006 0 0 0 14.949 14h10a15.017 15.017 0 0 0 15-15v-12a15.017 15.017 0 0 0 -15-15h-10a15.006 15.006 0 0 0 -14.949 14h-2.051v-3a13.015 13.015 0 0 1 13-13h18a13.015 13.015 0 0 1 13 13v20a13.015 13.015 0 0 1 -13 13h-18a13.015 13.015 0 0 1 -13-13v-3z"/><path d="m3 33h1a1 1 0 0 0 0-2h-1a1 1 0 0 0 0 2z"/><path d="m9 31h-1a1 1 0 0 0 0 2h1a1 1 0 0 0 0-2z"/><path d="m34 33h5v3a1 1 0 0 0 .617.924.987.987 0 0 0 .383.076 1 1 0 0 0 .707-.293l4-4a1 1 0 0 0 0-1.414l-4-4a1 1 0 0 0 -1.707.707v3h-5a1 1 0 0 0 0 2zm7-2.586 1.586 1.586-1.586 1.586z"/><path d="m47 36a6 6 0 1 0 6 6 6.006 6.006 0 0 0 -6-6zm0 10a4 4 0 1 1 4-4 4 4 0 0 1 -4 4z"/><path d="m47 26a1 1 0 0 0 .707-.293l1-1a1 1 0 0 0 -1.414-1.414l-1 1a1 1 0 0 0 .707 1.707z"/><path d="m51 30h1a1 1 0 0 0 0-2h-1a1 1 0 0 0 0 2z"/></svg>