<svg height="496pt" viewBox="-43 0 496 496" width="496pt" xmlns="http://www.w3.org/2000/svg"><path d="m217.601562 421.039062c-14.480468 39.039063-52.160156 66.960938-96.242187 66.960938h-10.71875c-28.320313 0-54-11.519531-72.5625-30.078125-18.558594-18.5625-30.078125-44.242187-30.078125-72.5625 0-6.71875.640625-13.28125 1.921875-19.757813 15.839844 12.398438 23.117187 28.71875 53.917969 34.160157 45.359375 8 50.878906-23.523438 96.238281-15.523438 33.121094 5.839844 39.121094 24.242188 57.523437 36.800781zm0 0" fill="#f0bc5e"/><path d="m405.472656 72.414062-13.472656 4.480469v-76.894531h-16v99.105469l34.527344-11.519531zm0 0"/><path d="m376 130.230469v349.769531h-32v-296h-44.71875c-19.503906 0-38.457031 6.847656-53.378906 19.304688-19.007813 15.894531-29.902344 39.214843-29.902344 63.976562v12.71875h-56v16h56v48h-48v16h48v25.359375c0 11.367187-1.984375 22.433594-5.894531 32.898437-13.707031 36.925782-49.371094 61.742188-88.746094 61.742188h-10.71875c-25.257813 0-49.007813-9.847656-66.90625-27.734375-17.886719-17.890625-27.734375-41.648437-27.734375-66.90625 0-6.144531.59375-12.261719 1.777344-18.222656 2.160156-11.105469 6.359375-21.511719 12.3125-31.136719h49.910156v-16h-37.710938c2.871094-3.007812 5.933594-5.878906 9.253907-8.542969l9.320312-7.457031h51.136719v-16h-31.136719l137.097657-109.679688c21.167968-16.976562 47.773437-26.320312 74.917968-26.320312h51.121094v-152h-16v136h-35.121094c-30.765625 0-60.925781 10.59375-84.910156 29.832031l-166.425781 133.136719c-8.925781 7.167969-16.535157 15.457031-22.558594 24.527344-8.375 12.304687-14.074219 25.953125-16.914063 40.542968-1.375 6.96875-2.070312 14.128907-2.070312 21.320313 0 29.527344 11.511719 57.304687 32.425781 78.214844 20.910157 20.914062 48.695313 32.425781 78.214844 32.425781h10.71875c46.039063 0 87.730469-29.007812 103.738281-72.160156 4.574219-12.246094 6.902344-25.191406 6.902344-38.480469v-118.078125c0-20.007812 8.808594-38.855469 24.167969-51.707031 12.03125-10.046875 27.34375-15.574219 43.113281-15.574219h28.71875v296h64v-354.230469l18.527344-6.175781-5.0625-15.167969zm0 0"/></svg>