<svg id="Capa_1" enable-background="new 0 0 512.016 512.016" height="512" viewBox="0 0 512.016 512.016" width="512" xmlns="http://www.w3.org/2000/svg"><g><g><g clip-rule="evenodd" fill-rule="evenodd"><path d="m162.607 329.74c0 8.284-6.715 15-15 15s-15-6.716-15-15 6.715-15 15-15 15 6.715 15 15zm14.256-53.601c-10.79-11.076-27.83-12.644-37.841-2.799-14.096 13.861-30.635 28.383-44.832 43.401-12.155 12.858-17.261 31.045-3.49 40.27l20.635 13.823c15.407 10.321 5.831 34.59-15.369 25.834l-12.993-5.367c-24.484-10.113-39.574 18.334-13.892 51.888 12.656 16.535 31.524 27.012 51.992 30.229 28.066 4.411 77.908-20.729 56.862-53.221l-12.724-19.643c-15.839-24.453 14.57-50.296 32.432-31.05l25.785 27.784c10.511 11.325 33.925 14.571 46.653 4.297s39.448-33.291 57.808-51.375c23.058-22.71 20.006-47.064-.072-68.463l-25.701-27.393c-25.34-27.008 5.43-67.736 38.361-41.785l40.789 32.145c21.24 16.738 42.78-11.244 52.806-27.704 23.578-38.712 34.198-85.361 10.772-126.735-17.165-30.315-50.276-51.627-85.334-52.729-20.249-.637-38.419 4.689-52.362 16.349-7.927 6.628-14.284 20.25 3.071 30.589l41.095 24.483c24.354 14.509 10.871 48.354-20.938 29.529-13.597-8.048-30.809-18.284-40.092-23.857-9.283-5.574-24.931-3.939-35.196 13.127-7.501 12.471-34.566 52.656-45.329 67.096-10.764 14.44-13.829 20.992-1.851 33.605l32.699 34.43c25.165 26.497-10.342 68.061-41.559 36.018zm217.117-94.267c-8.284 0-15-6.715-15-15 0-8.284 6.716-15 15-15s15 6.716 15 15-6.715 15-15 15zm-164.941 170.367c0-8.284 6.716-15 15-15s15 6.716 15 15-6.715 15-15 15c-8.284 0-15-6.715-15-15zm56.75-170.787c-8.284 0-15-6.715-15-15 0-8.284 6.716-15 15-15s15 6.716 15 15c-.001 8.284-6.716 15-15 15z" fill="#f05575"/><path d="m414.856 205.305c15.281-25.089 37.827-75.13 32.1-111.108 20.632 40.38 9.951 85.318-12.884 122.811-10.026 16.461-31.566 44.442-52.806 27.704l-40.789-32.145c-32.93-25.951-63.701 14.777-38.361 41.785l25.701 27.393c20.078 21.399 23.129 45.753.072 68.463-18.361 18.084-45.081 41.102-57.808 51.375-12.728 10.274-36.142 7.028-46.653-4.297l-25.785-27.784c-17.861-19.246-48.271 6.597-32.432 31.05l12.724 19.643c21.046 32.492-28.795 57.632-56.862 53.221-20.584-3.235-39.487-13.784-52.162-30.455 27.983 14.957 112.459 23.922 77.416-30.176-30.472-47.043 31.161-98.074 67.808-58.588l25.785 27.784c2.662 2.868 12.876 4.64 16.029 2.095 19.111-15.426 38.672-32.681 56.152-49.897 13.413-13.211 11.762-23.764-.692-37.038l-25.702-27.393c-20.982-22.363-21.114-57.559 3.315-77.308 20.043-16.203 45.951-12.855 65.38 2.456 31.991 25.21 43.288 38.809 60.454 10.409z" fill="#e21643"/><path d="m252.04 73.151c-66.167 117.755-91.453 136.531-177.427 221.019-126.9 124.708 9.929 267.704 136.688 186.628 105.818-67.681 189.978-152.274 248.394-248.185 108.181-177.617-122.914-310.274-207.655-159.462zm-169.067 318.15 12.993 5.367c21.2 8.757 30.776-15.512 15.369-25.834l-20.635-13.824c-13.771-9.225-8.665-27.411 3.49-40.27 14.197-15.018 30.736-29.54 44.832-43.401 10.011-9.844 27.051-8.276 37.841 2.799l22.185 22.772c31.217 32.043 66.724-9.522 41.559-36.018l-32.699-34.43c-11.979-12.613-8.913-19.165 1.851-33.605 10.763-14.44 37.828-54.625 45.329-67.096 10.265-17.066 25.913-18.7 35.196-13.127 9.283 5.574 26.495 15.809 40.092 23.857 31.809 18.826 45.293-15.019 20.938-29.529l-41.095-24.483c-17.354-10.339-10.997-23.961-3.071-30.589 13.944-11.66 32.114-16.985 52.362-16.349 35.057 1.102 68.169 22.414 85.334 52.729 23.426 41.374 12.806 88.023-10.772 126.735-10.026 16.461-31.566 44.442-52.806 27.704l-40.789-32.145c-32.93-25.951-63.701 14.777-38.361 41.785l25.701 27.393c20.078 21.399 23.129 45.753.072 68.463-18.361 18.084-45.081 41.102-57.808 51.375-12.728 10.274-36.142 7.028-46.653-4.297l-25.785-27.784c-17.861-19.246-48.271 6.597-32.432 31.05l12.724 19.643c21.046 32.492-28.795 57.632-56.862 53.221-20.468-3.217-39.336-13.694-51.992-30.229-25.682-33.549-10.592-61.997 13.892-51.883z" fill="#f88fa4"/><path d="m270.789 166.452c0 8.284 6.716 15 15 15s15-6.715 15-15c0-8.284-6.715-15-15-15s-15 6.716-15 15zm-123.181 178.287c8.284 0 15-6.716 15-15s-6.715-15-15-15-15 6.716-15 15c0 8.285 6.715 15 15 15zm81.431 7.5c0 8.284 6.716 15 15 15s15-6.716 15-15-6.715-15-15-15c-8.284.001-15 6.716-15 15zm149.942-185.367c0 8.284 6.716 15 15 15s15-6.715 15-15c0-8.284-6.716-15-15-15-8.285 0-15 6.716-15 15z" fill="#feef8f"/><path d="m88.497 494.97c34.78 15.073 79.381 13.602 122.804-14.172 105.818-67.681 189.978-152.274 248.394-248.185 46.175-75.813 30.519-143.412-9.165-184.296 28.998 46.83 29.781 108.03-10.051 172.592-60.517 98.091-144.546 179.05-241.301 240.934-21.22 13.573-48.741 35.271-110.681 33.127z" fill="#f05475"/></g><g><path d="m431.48 131.956h-15v-15h15zm-15-30h-15v-15h15z" fill="#fff"/></g></g><g><path d="m246.675 447.758 8.75 12.184c4.129-2.966 8.239-5.97 12.213-8.93l-8.959-12.031c-3.905 2.908-7.944 5.861-12.004 8.777z"/><path d="m477.706 72.203c-24.64-43.859-72.127-72.201-120.98-72.203-.003 0-.003 0-.006 0-21.667 0-42.832 5.744-61.203 16.608-20.183 11.937-37.011 29.725-50.016 52.869-59.053 105.095-84.405 129.817-152.161 195.89-7.46 7.275-15.422 15.039-23.984 23.454-30.306 29.782-48.313 63.161-52.076 96.528-3.378 29.958 4.924 59.209 23.376 82.365 18.489 23.2 45.393 38.444 75.757 42.926 6.23.919 12.501 1.376 18.791 1.376 27.058 0 54.43-8.457 80.137-24.899 9.307-5.952 18.632-12.162 27.718-18.456l-8.542-12.33c-8.935 6.189-18.106 12.295-27.258 18.149-28.592 18.288-59.246 25.663-88.655 21.32-26.59-3.924-50.106-17.219-66.217-37.435-15.956-20.022-23.131-45.357-20.201-71.335 3.372-29.907 19.861-60.167 47.684-87.51 8.548-8.4 16.496-16.15 23.943-23.413 66.945-65.282 94.654-92.303 154.766-199.281 22.402-39.871 57.258-61.827 98.146-61.826 43.521.002 85.876 25.339 107.904 64.55 14.247 25.361 31.72 78.464-11.34 149.163-45.896 75.355-107.386 143.076-182.762 201.282l9.168 11.872c76.834-59.332 139.55-128.422 186.404-205.351 18.175-29.841 28.015-59.937 29.246-89.452 1.105-26.467-4.994-52.354-17.639-74.861z"/><path d="m174.78 373.398c4.561-3.549 11.517-5.096 17.366 1.208l25.786 27.784c6.34 6.832 16.25 11.425 27.189 12.603 11.38 1.226 22.192-1.535 29.671-7.572 13.112-10.583 39.887-33.672 58.36-51.868 24.507-24.137 24.557-52.909.136-78.938l-25.702-27.393c-10.184-10.854-8.613-24.052-1.799-31.479 5.91-6.443 16.909-9.639 30.048.716l40.789 32.146c7.111 5.604 15.207 7.784 23.409 6.307 17.19-3.096 31.482-21.286 40.444-36 29.059-47.71 32.927-95.417 10.894-134.332-18.788-33.182-54.753-55.371-91.625-56.531-22.558-.707-42.407 5.547-57.408 18.091-7.275 6.083-11.24 14.459-10.606 22.407.444 5.581 3.348 13.646 14.648 20.379l41.095 24.483c8.362 4.981 10.482 12.803 7.701 17.487-3.086 5.196-11.32 4.861-20.98-.856-14.491-8.577-31.335-18.6-40.052-23.833-6.727-4.039-15.174-5.023-23.182-2.699-6.212 1.804-15.124 6.458-22.301 18.39-2.998 4.984-9.646 15.208-17.783 27.352l12.461 8.351c8.388-12.518 15.013-22.713 18.176-27.971 8.273-13.755 19.428-13.853 24.908-10.563 8.74 5.248 25.618 15.291 40.132 23.882 19.891 11.772 35.184 6.274 41.519-4.394 3.479-5.859 4.194-13.216 1.961-20.185-2.294-7.158-7.579-13.497-14.882-17.848l-41.095-24.483c-3.2-1.906-7.077-4.96-7.374-8.685-.292-3.665 2.659-7.52 5.276-9.708 12.134-10.147 28.508-15.183 47.315-14.606 31.752.999 62.778 20.205 79.043 48.929 25.951 45.834 4.466 94.318-10.651 119.139-10.254 16.835-21.295 27.42-30.292 29.041-4.024.723-7.668-.332-11.466-3.326l-40.789-32.146c-19.863-15.653-39.619-10.814-50.387.924-6.098 6.646-9.454 15.354-9.452 24.52.003 9.979 3.933 19.442 11.365 27.364l25.702 27.393c18.852 20.092 18.945 39.602.278 57.988-18.109 17.836-44.384 40.492-57.257 50.883-9.758 7.877-28.803 4.67-36.444-3.563l-25.786-27.784c-10.18-10.968-25.63-12.137-37.575-2.84-6.006 4.675-10.146 11.305-11.655 18.667-1.698 8.287.032 16.725 5.005 24.402l12.724 19.643c4.883 7.538 5.098 14.525.659 21.361-9.372 14.432-34.603 22.806-50.061 20.374-19.239-3.024-36.002-12.747-47.201-27.378-13.225-17.279-13.957-32.044-9.039-38.451 3.941-5.137 10.534-3.425 14.112-1.947l12.993 5.368c14.71 6.076 26.021-.038 30.701-8.792 4.822-9.019 3.521-22.29-8.294-30.205l-20.635-13.823c-2.896-1.94-4.476-4.429-4.833-7.61-.677-6.04 3.09-14.392 9.598-21.276 8.688-9.19 18.392-18.308 27.776-27.125 5.906-5.549 11.485-10.791 16.865-16.081 3.74-3.679 8.268-4.42 11.44-4.377 5.709.061 11.457 2.635 15.77 7.062l22.185 22.772c18.874 19.373 40.209 15.94 52.047 4.555 6.455-6.209 10.418-14.879 10.872-23.787.501-9.839-3.245-19.494-10.55-27.186l-32.699-34.43c-7.919-8.338-7.716-10.354 2.425-23.958 4.169-5.593 10.965-15.276 19.136-27.265l-12.396-8.447c-7.938 11.647-14.778 21.396-18.767 26.747-11.25 15.092-17.417 26.257-1.276 43.252l32.699 34.43c9.769 10.286 7.473 22.793.156 29.831-6.688 6.435-18.318 8.707-30.904-4.211l-22.185-22.772c-7.077-7.265-16.683-11.491-26.353-11.595-8.451-.083-16.333 2.992-22.118 8.681-5.258 5.17-10.776 10.355-16.619 15.844-9.543 8.967-19.412 18.239-28.405 27.752-9.702 10.264-14.788 22.694-13.604 33.251.854 7.619 4.793 13.981 11.391 18.401l20.635 13.823c4.613 3.09 5.003 7.698 3.415 10.67-1.908 3.567-6.189 4.298-11.746 2l-12.993-5.367c-12.464-5.148-24.625-2.589-31.738 6.678-7.939 10.344-10.338 31.4 9.027 56.701 13.552 17.706 33.718 29.454 56.783 33.08 2.452.385 5.069.575 7.797.575 19.919 0 45.801-10.086 57.173-27.598 7.671-11.812 7.44-25.196-.649-37.685l-12.724-19.643c-6.976-10.771-1.223-19.573 3.276-23.075z"/><path d="m393.98 189.372c12.406 0 22.5-10.093 22.5-22.5s-10.094-22.5-22.5-22.5-22.5 10.093-22.5 22.5c0 12.406 10.094 22.5 22.5 22.5zm0-30c4.136 0 7.5 3.364 7.5 7.5 0 4.135-3.364 7.5-7.5 7.5s-7.5-3.364-7.5-7.5 3.365-7.5 7.5-7.5z"/><path d="m308.288 166.452c0-12.407-10.093-22.5-22.499-22.5s-22.5 10.093-22.5 22.5 10.094 22.5 22.5 22.5 22.499-10.093 22.499-22.5zm-29.999 0c0-4.136 3.364-7.5 7.5-7.5 4.135 0 7.499 3.364 7.499 7.5 0 4.135-3.364 7.5-7.499 7.5-4.136 0-7.5-3.365-7.5-7.5z"/><path d="m244.039 329.74c-12.406 0-22.5 10.093-22.5 22.5s10.093 22.5 22.5 22.5 22.5-10.093 22.5-22.5-10.093-22.5-22.5-22.5zm0 29.999c-4.135 0-7.5-3.364-7.5-7.5 0-4.135 3.364-7.5 7.5-7.5s7.5 3.364 7.5 7.5-3.364 7.5-7.5 7.5z"/><path d="m170.107 329.74c0-12.407-10.093-22.5-22.5-22.5-12.406 0-22.5 10.093-22.5 22.5 0 12.406 10.093 22.5 22.5 22.5 12.407-.001 22.5-10.094 22.5-22.5zm-29.999 0c0-4.136 3.364-7.5 7.5-7.5s7.5 3.364 7.5 7.5c0 4.135-3.364 7.5-7.5 7.5-4.136-.001-7.5-3.365-7.5-7.5z"/><path d="m275.061 277.801h15v15h-15z" transform="matrix(.712 -.702 .702 .712 -118.953 280.36)"/><path d="m280.324 321.077h15v15h-15z" transform="matrix(.712 -.702 .702 .712 -147.809 296.49)"/><path d="m119.845 426.551h15v15h-15z" transform="matrix(.712 -.702 .702 .712 -267.984 214.204)"/><path d="m344.481 173.134h14.999v15.001h-14.999z" transform="matrix(.418 -.909 .909 .418 40.9 425.067)"/><path d="m356.73 67.613h15v15h-15z" transform="matrix(.526 -.851 .851 .526 108.907 345.513)"/><path d="m244.039 203.133h15v15h-15z" transform="matrix(.635 -.773 .773 .635 -70.866 271.404)"/></g></g></svg>