<svg id="Layer_1" height="512" viewBox="0 0 64 64" width="512" xmlns="http://www.w3.org/2000/svg" data-name="Layer 1"><path d="m53 53.536v-43.072a3.535 3.535 0 0 1 1.036-2.5l3.464-3.464-8.464-1.536a3.535 3.535 0 0 1 -2.5 1.036h-29.072a3.535 3.535 0 0 1 -2.5-1.036l-7.464 2.536 2.464 2.464a3.535 3.535 0 0 1 1.036 2.5v43.072a3.535 3.535 0 0 1 -1.036 2.5l-3.464 3.464 8.464 1.536a3.535 3.535 0 0 1 2.5-1.036h29.072a3.535 3.535 0 0 1 2.5 1.036l7.464-2.536-2.464-2.464a3.535 3.535 0 0 1 -1.036-2.5z" fill="#8cc63f"/><path d="m47 8h-30a2 2 0 0 0 -2 2v44a2 2 0 0 0 2 2h30a2 2 0 0 0 2-2v-44a2 2 0 0 0 -2-2z" fill="#d2f294"/><path d="m47 54h-30a2 2 0 0 1 -2-2v2a2 2 0 0 0 2 2h30a2 2 0 0 0 2-2v-2a2 2 0 0 1 -2 2z" fill="#aedd3c" opacity=".5"/><circle cx="27" cy="22" fill="#aedd3c" opacity=".5" r="11"/><path d="m27 30a9 9 0 1 0 -9-9 9 9 0 0 0 9 9z" fill="#fbb03b"/><circle cx="23.5" cy="21.5" fill="#ce7c29" r="2.5"/><path d="m25.5 54a8.5 8.5 0 0 1 0-17h1a4.505 4.505 0 0 1 4.5 4.5.5.5 0 0 0 .5.5h9.5a6 6 0 0 1 0 12z" fill="#aedd3c" opacity=".5"/><path d="m41 44h-9.5a2.5 2.5 0 0 1 -2.5-2.5 2.5 2.5 0 0 0 -2.5-2.5h-1a6.5 6.5 0 0 0 0 13h15.5a4 4 0 0 0 0-8z" fill="#f7aa9a"/><path d="m42 50h-15.5a6.493 6.493 0 0 1 -6.229-8.349 6.491 6.491 0 0 0 5.229 10.349h15.5a3.994 3.994 0 0 0 3.929-3.293 3.979 3.979 0 0 1 -2.929 1.293z" fill="#f9653d"/><path d="m27 28a9 9 0 0 1 -8.941-8 9 9 0 1 0 17.882 0 9 9 0 0 1 -8.941 8z" fill="#ce7c29"/><g fill="#fff"><circle cx="31.5" cy="17.648" opacity=".6" r="1.5"/><circle cx="29.75" cy="15.398" opacity=".6" r=".75"/><path d="m45 34.5a1.5 1.5 0 0 1 -1.5-1.5v-16.349a3.155 3.155 0 0 0 -3.151-3.151 1.5 1.5 0 0 1 0-3 6.158 6.158 0 0 1 6.151 6.151v16.349a1.5 1.5 0 0 1 -1.5 1.5z" opacity=".6"/><circle cx="44.929" cy="38" opacity=".6" r="1.429"/><circle cx="25.465" cy="42.564" opacity=".6" r="1.961"/><circle cx="22.331" cy="43.996" opacity=".6" r="1.164"/></g><path d="m47 7h-30a3 3 0 0 0 -3 3v44a3 3 0 0 0 3 3h30a3 3 0 0 0 3-3v-44a3 3 0 0 0 -3-3zm1 47a1 1 0 0 1 -1 1h-30a1 1 0 0 1 -1-1v-44a1 1 0 0 1 1-1h30a1 1 0 0 1 1 1z"/><path d="m17.464 5h29.072a4.506 4.506 0 0 0 3.207-1.329 1 1 0 1 0 -1.414-1.414 2.52 2.52 0 0 1 -1.793.743h-29.072a2.52 2.52 0 0 1 -1.793-.743 1 1 0 1 0 -1.414 1.414 4.506 4.506 0 0 0 3.207 1.329z"/><path d="m55.793 59.207a1 1 0 0 0 1.414-1.414l-2.464-2.464a2.52 2.52 0 0 1 -.743-1.793v-43.072a2.52 2.52 0 0 1 .743-1.793l3.464-3.464a1 1 0 1 0 -1.414-1.414l-3.464 3.464a4.506 4.506 0 0 0 -1.329 3.207v43.072a4.506 4.506 0 0 0 1.329 3.207z"/><path d="m15.671 61.743a2.52 2.52 0 0 1 1.793-.743h29.072a2.52 2.52 0 0 1 1.793.743 1 1 0 0 0 1.414-1.414 4.506 4.506 0 0 0 -3.207-1.329h-29.072a4.506 4.506 0 0 0 -3.207 1.329 1 1 0 1 0 1.414 1.414z"/><path d="m6.5 60.5a1 1 0 0 0 .707-.293l3.464-3.464a4.506 4.506 0 0 0 1.329-3.207v-43.072a4.506 4.506 0 0 0 -1.329-3.207l-2.464-2.464a1 1 0 1 0 -1.414 1.414l2.464 2.464a2.52 2.52 0 0 1 .743 1.793v43.072a2.52 2.52 0 0 1 -.743 1.793l-3.464 3.464a1 1 0 0 0 .707 1.707z"/><path d="m27 31a10 10 0 1 0 -10-10 10.011 10.011 0 0 0 10 10zm0-18a8 8 0 1 1 -8 8 8.009 8.009 0 0 1 8-8z"/><path d="m27 21.5a3.5 3.5 0 1 0 -3.5 3.5 3.5 3.5 0 0 0 3.5-3.5zm-5 0a1.5 1.5 0 1 1 1.5 1.5 1.5 1.5 0 0 1 -1.5-1.5z"/><path d="m38.568 23.577a11.73 11.73 0 0 1 -11.568 9.675 1 1 0 0 0 0 2 13.722 13.722 0 0 0 8.645-3.058l.74.683a14.792 14.792 0 0 1 -2.362 1.6 1 1 0 0 0 .954 1.758 16.757 16.757 0 0 0 4.363-3.408l.7.708a17.743 17.743 0 0 1 -6.646 4.533 1 1 0 0 0 .356 1.932.989.989 0 0 0 .36-.067 19.762 19.762 0 0 0 7.99-5.712l.008-.006c.01-.009.012-.021.021-.03.229-.273.457-.547.672-.832a1 1 0 0 0 -.2-1.4.987.987 0 0 0 -1.251.065l-.744-.757a16.737 16.737 0 0 0 2.317-4.587c.009-.022.024-.039.031-.061s0-.038.006-.057a16.739 16.739 0 0 0 .79-5.056c0-.238-.017-.473-.027-.71l1-.157c.014.289.027.578.027.867a17.925 17.925 0 0 1 -.355 3.551 1 1 0 0 0 .781 1.179.976.976 0 0 0 .2.02 1 1 0 0 0 .979-.8 19.432 19.432 0 0 0 .272-6.082c0-.015 0-.029 0-.044s-.007-.014-.008-.022a19.727 19.727 0 0 0 -2.242-7.19 1 1 0 1 0 -1.758.952 17.685 17.685 0 0 1 1.889 5.58l-.981.153a16.609 16.609 0 0 0 -.577-2.418 1 1 0 1 0 -1.9.612 14.692 14.692 0 0 1 .263 8.052l-.957-.3c.065-.27.133-.538.183-.815a1 1 0 0 0 -1.969-.35zm2.132 3.372a14.736 14.736 0 0 1 -2.858 4.551l-.736-.679a13.666 13.666 0 0 0 2.64-4.174z"/><path d="m20 31.5a1 1 0 0 0 0 2h1a1 1 0 0 0 0-2z"/><path d="m46 29h-1a1 1 0 0 0 0 2h1a1 1 0 0 0 0-2z"/><path d="m41 43h-9.5a1.5 1.5 0 0 1 -1.5-1.5 3.5 3.5 0 0 0 -3.5-3.5h-1a7.5 7.5 0 0 0 0 15h15.5a5 5 0 0 0 0-10zm0 8h-15.5a5.5 5.5 0 0 1 0-11h1a1.5 1.5 0 0 1 1.5 1.5 3.5 3.5 0 0 0 3.5 3.5h9.5a3 3 0 0 1 0 6z"/><path d="m43 39h-1a1 1 0 0 0 0 2h1a1 1 0 0 0 0-2z"/><path d="m37 13h1a1 1 0 0 0 0-2h-1a1 1 0 0 0 0 2z"/></svg>