<?xml version="1.0" encoding="iso-8859-1"?>
<!-- Generator: Adobe Illustrator 19.0.0, SVG Export Plug-In . SVG Version: 6.00 Build 0)  -->
<svg version="1.1" id="Capa_1" xmlns="http://www.w3.org/2000/svg" xmlns:xlink="http://www.w3.org/1999/xlink" x="0px" y="0px"
	 viewBox="0 0 512.009 512.009" style="enable-background:new 0 0 512.009 512.009;" xml:space="preserve">
<g transform="translate(-1)">
	<g transform="translate(1 1)">
		<path style="fill:#CFD8DC;" d="M266.088,7.533c-6.997,0-16.725,0.341-28.075,1.451c-3.243,0.341-6.485,0.683-9.984,1.109
			c-0.597,0.085-1.28,0.171-1.963,0.256C154.984,19.395,37.224,53.955,37.224,167.533c0.011,4.93-0.65,9.84-1.963,14.592
			c-2.591,8.323-0.282,17.396,5.973,23.467c6.62,6.115,10.262,14.8,9.984,23.808c0,8.533-34.133,17.067-34.133,17.067V280.6
			c0,8.021,25.941,26.027,36.011,49.579c3.068,7.012,0.683,15.215-5.666,19.49c-6.349,4.275-14.847,3.398-20.19-2.082l-6.229,18.859
			c-2.207,6.606,0.273,13.872,6.059,17.749c13.248,8.817,28.286,14.588,44.032,16.896l12.8,1.792
			c21.434,3.063,43.292-0.51,62.635-10.24l14.421-7.168l-2.304,27.989c-1.255,14.216-11.953,25.791-26.027,28.16L100.883,447
			c-2.627,0.412-5.3,0.441-7.936,0.085l-55.296-7.936c-2.61-0.396-5.263,0.367-7.263,2.089c-2.001,1.722-3.15,4.231-3.147,6.871
			v13.653c0.008,3.78-1.498,7.407-4.181,10.069l-1.877,1.877c-3.219,3.246-4.685,7.84-3.941,12.351
			c0.743,4.511,3.606,8.391,7.696,10.433c1.524,0.751,3.172,1.213,4.864,1.365l26.453,2.731
			c46.605,4.628,93.663,0.665,138.837-11.691l3.243-0.853c22.416-6.23,37.918-26.655,37.888-49.92
			c-0.009-26.232,8.897-51.688,25.259-72.192l29.013-36.437c0.162,0.184,0.305,0.384,0.427,0.597
			c0.701,0.826,1.33,1.711,1.877,2.645c1.673,2.563,3.211,5.212,4.608,7.936c0.597,1.28,1.195,2.475,1.707,3.755l0.256,0.512
			c0.512,1.28,1.024,2.56,1.536,3.925c0.1,0.222,0.185,0.45,0.256,0.683c1.066,2.74,1.894,5.566,2.475,8.448
			c0,0.085,0.085,0.256,0.085,0.341c2.62,12.108,11.296,22.01,22.955,26.197c0.171,0.085,0.256,0.085,0.427,0.171
			c0.672,0.211,1.356,0.382,2.048,0.512c2.05,0.418,4.138,0.618,6.229,0.597h9.472c2.731-0.512,5.376-1.109,8.107-1.877
			c1.006-0.178,2.003-0.405,2.987-0.683c0.58-0.131,1.15-0.302,1.707-0.512c2.219-0.512,4.523-1.195,6.741-1.877
			c0.491-0.115,0.976-0.257,1.451-0.427l0.768-0.256c0.267-0.047,0.526-0.133,0.768-0.256l19.883-7.509c0.171,0,0.256,0,0.341-0.085
			c0.25-0.061,0.484-0.178,0.683-0.341c0.853-0.341,1.707-0.683,2.56-1.109c2.048-0.939,4.096-1.877,6.059-2.901l1.536-0.768
			c2.731-1.365,5.376-2.731,8.021-4.352c0.557-0.251,1.099-0.536,1.621-0.853c3.072-1.792,6.059-3.669,9.045-5.632
			c0.189-0.083,0.362-0.199,0.512-0.341c3.243-2.048,6.315-4.181,9.387-6.4c3.157-2.389,6.315-4.779,9.472-7.253
			c0.149-0.024,0.277-0.12,0.341-0.256c1.621-1.194,3.072-2.475,4.693-3.669c0.085-0.085,0.256-0.171,0.341-0.256
			c2.901-2.389,5.803-4.779,8.704-7.253c5.12-4.352,10.069-8.789,14.507-13.312c0.853-0.853,1.707-1.792,2.56-2.731
			c1.707-2.048,3.413-4.267,5.035-6.656c0.853-1.28,1.621-2.56,2.475-3.84c0.768-1.451,1.621-2.901,2.475-4.352
			c0.939-1.792,1.878-3.669,2.816-5.632c2.881-6.294,5.361-12.764,7.424-19.371v-0.085c2.212-7.385,3.923-14.912,5.12-22.528
			c0.427-2.645,0.768-5.291,1.024-8.021c0.17-2.219,0.341-4.437,0.512-6.656c0.314-3.375,0.457-6.765,0.427-10.155
			C494.952,137.581,435.219,7.533,266.088,7.533z M184.168,345.539l-2.731-4.949l2.816,4.949c0.756,1.35,1.357,2.782,1.792,4.267
			C185.528,348.338,184.9,346.912,184.168,345.539z M186.728,352.28c-0.085-0.256-0.171-0.597-0.256-0.939
			c0.071,0.233,0.157,0.461,0.256,0.683V352.28z"/>
		<g>
			<path style="fill:#FFE0B2;" d="M290.493,329.496l-29.013,36.437c-16.361,20.504-25.268,45.96-25.259,72.192
				c0.03,23.266-15.472,43.69-37.888,49.92l-3.243,0.853c-45.175,12.356-92.233,16.318-138.837,11.691L29.8,497.859
				c-1.692-0.152-3.34-0.615-4.864-1.365c-4.09-2.042-6.953-5.922-7.696-10.433c-0.743-4.511,0.723-9.104,3.941-12.351l1.877-1.877
				c2.684-2.663,4.19-6.289,4.181-10.069v-13.653c-0.003-2.64,1.147-5.149,3.147-6.871c2.001-1.722,4.653-2.485,7.263-2.089
				l55.296,7.936c2.636,0.356,5.309,0.327,7.936-0.085l31.744-5.376c14.074-2.369,24.772-13.944,26.027-28.16l2.304-27.989
				l12.885-6.485c3.101-1.609,5.833-3.847,8.021-6.571c0.392-0.383,0.736-0.813,1.024-1.28c0.341-0.427,0.597-0.853,0.939-1.365
				v-0.085c1.112-1.87,1.973-3.878,2.56-5.973c0.865-3.079,1.097-6.301,0.683-9.472c-0.072-0.661-0.186-1.316-0.341-1.963v-0.256
				c-0.099-0.222-0.185-0.45-0.256-0.683v-0.171c0-0.085,0-0.085-0.085-0.171c0.067-0.215,0-0.45-0.171-0.597v-0.085
				c-0.057-0.171-0.114-0.341-0.171-0.512c-0.435-1.485-1.036-2.916-1.792-4.267l-2.816-4.949l-0.683-1.28l-0.512-0.853
				l-1.877-3.499l-1.451-2.56l18.176-9.131c7.196-3.656,15.558-4.271,23.211-1.707c3.13,1.076,6.418,1.624,9.728,1.621
				c8.079,0.015,15.826-3.213,21.504-8.96l3.413-3.499c1.607-1.547,2.834-3.446,3.584-5.547l9.557,2.389l1.28,0.768
				c0.256,0.085,0.597,0.341,0.939,0.512c0.171,0.085,0.427,0.256,0.597,0.341c0.085,0.085,0.256,0.171,0.341,0.256
				c0.512,0.341,1.109,0.683,1.707,1.109c0.427,0.341,0.939,0.683,1.451,1.024c1.621,1.195,3.413,2.56,5.461,4.352
				c1.28,1.109,2.56,2.304,4.011,3.669l0.085,0.085l0.171,0.171l0.939,0.939c0.289,0.362,0.603,0.704,0.939,1.024
				c0.341,0.427,0.768,0.768,1.109,1.195c0.391,0.378,0.761,0.777,1.109,1.195c0.768,0.853,1.621,1.792,2.389,2.816
				C289.213,327.789,289.896,328.643,290.493,329.496z"/>
			<path style="fill:#FFE0B2;" d="M494.952,227.608c0.03,3.39-0.112,6.779-0.427,10.155l-15.957,5.291
				c-3.584,1.195-7.083,2.56-10.496,4.011c-23.687,10.299-43.895,27.218-58.197,48.725l-14.421,21.845l-38.059-19.2
				c0.853-1.28,1.621-2.645,2.389-4.011c3.812-7.112,5.805-15.056,5.803-23.125c0.013-8.824-3.135-17.361-8.875-24.064
				l-37.291-43.861c-8.308-9.724-21.311-14.058-33.792-11.264l-46.165,10.325c-13.962,3.085-28.381-2.75-36.267-14.677l-0.939-1.451
				c-3.816-5.705-5.837-12.422-5.803-19.285v-5.035c-0.032-9.202,3.59-18.041,10.069-24.576l0.853-0.853
				c5.789-5.815,9.327-13.496,9.984-21.675l8.704-104.533c0.683-0.085,1.365-0.171,1.963-0.256c3.499-0.427,6.741-0.768,9.984-1.109
				c6.059-0.597,11.691-0.939,16.64-1.195h0.341c4.181-0.171,7.936-0.256,11.093-0.256
				C435.219,7.533,494.952,137.581,494.952,227.608z"/>
			<path style="fill:#FFE0B2;" d="M408.083,362.008c-0.522,0.317-1.064,0.602-1.621,0.853c-2.645,1.621-5.291,2.987-8.021,4.352
				l-1.536,0.768c-1.963,1.024-4.011,1.963-6.059,2.901c-0.853,0.427-1.707,0.768-2.56,1.109c-0.199,0.164-0.432,0.28-0.683,0.341
				c-0.085,0.085-0.171,0.085-0.341,0.085l-19.883,7.509c-0.242,0.123-0.501,0.209-0.768,0.256l-0.768,0.256
				c-0.475,0.17-0.959,0.312-1.451,0.427c-2.219,0.683-4.523,1.365-6.741,1.877c-0.556,0.21-1.127,0.381-1.707,0.512
				c-0.984,0.277-1.98,0.505-2.987,0.683c-2.731,0.768-5.376,1.365-8.107,1.877h-9.472c-2.092,0.021-4.18-0.179-6.229-0.597
				c-0.692-0.13-1.376-0.301-2.048-0.512c-0.171-0.085-0.256-0.085-0.427-0.171c-0.171-0.085-0.341-0.085-0.513-0.256
				c-11.402-4.273-19.855-14.043-22.442-25.942c0-0.085-0.085-0.256-0.085-0.341c-0.581-2.882-1.409-5.709-2.475-8.448
				c-0.071-0.233-0.156-0.461-0.256-0.683c-0.512-1.365-1.024-2.645-1.536-3.925l-0.256-0.512c-0.512-1.28-1.109-2.475-1.707-3.755
				c-1.397-2.724-2.935-5.373-4.608-7.936c-0.548-0.935-1.176-1.82-1.877-2.645c-0.122-0.213-0.264-0.413-0.427-0.597
				c-0.597-0.853-1.28-1.707-1.877-2.475l37.632-7.509c6.278-1.291,12.247-3.783,17.579-7.339c1.701-1.108,3.3-2.364,4.779-3.755
				c1.276-1.049,2.474-2.19,3.584-3.413c0.251-0.234,0.48-0.491,0.683-0.768c0.386-0.358,0.73-0.758,1.024-1.195
				c1.096-1.229,2.094-2.542,2.987-3.925c0.171-0.256,0.341-0.427,0.512-0.683l38.059,19.2l8.533,30.037L408.083,362.008z"/>
		</g>
		<path style="fill:#CFD8DC;" d="M494.525,237.763c-0.171,2.219-0.341,4.437-0.512,6.656c-0.256,2.73-0.597,5.376-1.024,8.021
			c-1.197,7.616-2.908,15.143-5.12,22.528v0.085c-2.063,6.607-4.543,13.077-7.424,19.371c-0.939,1.963-1.877,3.84-2.816,5.632
			c-0.853,1.451-1.707,2.901-2.475,4.352c-0.853,1.28-1.621,2.56-2.475,3.84c-1.621,2.389-3.328,4.608-5.035,6.656
			c-0.853,0.939-1.707,1.877-2.56,2.731c-4.437,4.523-9.387,8.96-14.507,13.312c-2.901,2.475-5.803,4.864-8.704,7.253
			c-0.085,0.085-0.256,0.171-0.341,0.256c-1.621,1.195-3.072,2.475-4.693,3.669c-0.065,0.136-0.192,0.232-0.341,0.256
			c-3.157,2.475-6.315,4.864-9.472,7.253c-3.072,2.219-6.144,4.352-9.387,6.4c-0.15,0.143-0.323,0.258-0.512,0.341
			c-2.987,1.963-5.973,3.84-9.045,5.632l-12.629-44.373l14.421-21.845c16.4-24.725,40.571-43.281,68.693-52.736L494.525,237.763z"/>
		<path style="fill:#FFE0B2;" d="M203.172,187.754l-0.946-1.426c-2.613-3.976-4.383-8.446-5.201-13.133l-24.845,3.568
			c-3.722,0.535-7.333,1.668-10.692,3.357l-34.73,17.454l-1.49,1.497c4.516,9.146,10.478,17.503,17.655,24.752
			c2.447,2.489,3.793,5.855,3.738,9.344c0.01,20.643,13.256,38.953,32.86,45.421l6.945-0.997v-36.693
			c-0.006-8.372,3.919-16.262,10.6-21.308l24.117-18.18C213.815,199.009,207.471,194.199,203.172,187.754z"/>
		<path style="fill:#BFA885;" d="M273.768,344.941l-0.256-0.512c-0.512-1.28,17.237-11.349,16.64-12.629
			c-1.451-2.816-10.225-14.693-11.846-17.167c-4.752,4.693-9.23,9.656-13.412,14.863l-29.013,36.437
			c-16.361,20.504-25.268,45.96-25.259,72.192c0.03,23.266-15.472,43.69-37.888,49.92l-3.243,0.853
			c-28.632,7.809-58.065,12.304-87.723,13.397c38.232,1.226,76.431-3.29,113.323-13.397l3.243-0.853
			c22.416-6.23,37.918-26.655,37.888-49.92c-0.009-26.232,8.897-51.688,25.259-72.192l13.739-17.237
			C274.707,347.416,274.28,346.136,273.768,344.941z M160.872,351.341c0.085,0.341,0.171,0.683,0.256,0.939v-0.256
			C161.029,351.802,160.943,351.574,160.872,351.341z M401.427,349.635c-3.072,2.219-6.144,4.352-9.387,6.4
			c-0.15,0.143-0.323,0.258-0.512,0.341c-2.987,1.963-5.973,3.84-9.045,5.632c-0.522,0.317-1.064,0.602-1.621,0.853
			c-2.645,1.621-5.291,2.987-8.021,4.352l-1.536,0.768c-1.963,1.024-4.011,1.963-6.059,2.901c-0.853,0.427-1.707,0.768-2.56,1.109
			c-0.199,0.164-0.432,0.28-0.683,0.341c-0.085,0.085-0.171,0.085-0.341,0.085l-19.883,7.509c-0.242,0.123-0.501,0.209-0.768,0.256
			l-0.768,0.256c-0.475,0.17-0.959,0.312-1.451,0.427c-2.219,0.683-4.523,1.365-6.741,1.877c-0.556,0.21-1.127,0.381-1.707,0.512
			c-0.984,0.277-1.98,0.505-2.987,0.683c-0.427,0.085-0.768,0.256-1.195,0.341c0.171,0.171,0.341,0.171,0.513,0.256
			s0.256,0.085,0.427,0.171c0.672,0.211,1.356,0.382,2.048,0.512c2.05,0.418,4.138,0.618,6.229,0.597h9.472
			c2.731-0.512,5.376-1.109,8.107-1.877c1.006-0.178,2.003-0.405,2.987-0.683c0.58-0.131,1.15-0.302,1.707-0.512
			c2.219-0.512,4.523-1.195,6.741-1.877c0.491-0.115,0.976-0.257,1.451-0.427l0.768-0.256c0.267-0.047,0.526-0.133,0.768-0.256
			l19.883-7.509c0.171,0,0.256,0,0.341-0.085c0.25-0.061,0.484-0.178,0.683-0.341c0.853-0.341,1.707-0.683,2.56-1.109
			c2.048-0.939,4.096-1.877,6.059-2.901l1.536-0.768c2.731-1.365,5.376-2.731,8.021-4.352c0.557-0.251,1.099-0.536,1.621-0.853
			l-4.096-14.336C403.133,348.355,402.28,348.952,401.427,349.635z M266.088,7.533c-3.157,0-6.912,0.085-11.093,0.256
			c158.037,7.253,214.357,132.437,214.357,219.819c0.03,3.39-0.112,6.779-0.427,10.155c-0.171,2.219-0.341,4.437-0.512,6.656
			c-0.066,0.887-0.18,1.77-0.341,2.645c3.413-1.451,6.912-2.816,10.496-4.011l15.957-5.291c0.314-3.375,0.457-6.765,0.427-10.155
			C494.952,137.581,435.219,7.533,266.088,7.533z"/>
		<path style="fill:#607D8B;" d="M494.525,237.763c-0.171,2.219-0.341,4.437-0.512,6.656c-0.256,2.73-0.597,5.376-1.024,8.021
			c-1.197,7.616-2.908,15.143-5.12,22.528v0.085c-2.063,6.607-4.543,13.077-7.424,19.371c-0.939,1.963-1.877,3.84-2.816,5.632
			c-0.853,1.451-1.707,2.901-2.475,4.352c-0.853,1.28-1.621,2.56-2.475,3.84c-1.621,2.389-3.328,4.608-5.035,6.656
			c-0.853,0.939-1.707,1.877-2.56,2.731c-4.437,4.523-9.387,8.96-14.507,13.312c-2.901,2.475-5.803,4.864-8.704,7.253
			c-0.085,0.085-0.256,0.171-0.341,0.256c-1.621,1.195-3.072,2.475-4.693,3.669c-0.065,0.136-0.192,0.232-0.341,0.256
			c-3.157,2.475-6.315,4.864-9.472,7.253c-3.072,2.219-6.144,4.352-9.387,6.4c-0.15,0.143-0.323,0.258-0.512,0.341
			c-2.987,1.963-5.973,3.84-9.045,5.632l-4.096-14.336c2.304-1.707,4.608-3.499,6.912-5.291c0.149-0.024,0.277-0.12,0.341-0.256
			c1.621-1.194,3.072-2.475,4.693-3.669c0.085-0.085,0.256-0.171,0.341-0.256c2.901-2.389,5.803-4.779,8.704-7.253
			c5.12-4.352,10.069-8.789,14.507-13.312c0.853-0.853,1.707-1.792,2.56-2.731c1.707-2.048,3.413-4.267,5.035-6.656
			c0.853-1.28,1.621-2.56,2.475-3.84c0.768-1.451,1.621-2.901,2.475-4.352c0.939-1.792,1.878-3.669,2.816-5.632
			c2.881-6.294,5.361-12.764,7.424-19.371v-0.085c2.212-7.385,3.923-14.912,5.12-22.528c0.256-1.792,0.512-3.584,0.683-5.376
			c3.413-1.451,6.912-2.816,10.496-4.011L494.525,237.763z"/>
	</g>
	<g>
		<path d="M86.352,290.133c16.799-0.874,29.987-14.724,30.037-31.546c0-32.983-31-66.712-32.321-68.129
			c-3.21-3.442-8.601-3.635-12.048-0.431s-3.65,8.595-0.452,12.048c7.721,8.304,27.754,34.646,27.754,56.513
			c-0.194,7.352-5.685,13.48-12.971,14.479c-4.204-0.848-8.051-2.952-11.034-6.033c-2.149-2.188-5.307-3.055-8.271-2.27
			c-2.965,0.785-5.28,3.1-6.065,6.065s0.082,6.122,2.27,8.271C69.421,285.371,77.597,289.276,86.352,290.133z"/>
		<path d="M9.552,247.467V281.6c0,6.913,5.55,12.912,13.954,21.996c9.238,8.985,16.934,19.431,22.779,30.916
			c1.503,3.399,0.238,7.385-2.95,9.296c-2.769,2.053-6.658,1.593-8.871-1.05c-2.06-2.19-5.12-3.135-8.055-2.487
			s-5.314,2.792-6.261,5.646l-6.246,18.833c-3.374,10.245,0.477,21.485,9.425,27.508c14.287,9.54,30.523,15.771,47.525,18.238
			l12.821,1.841c23.158,3.349,46.786-0.501,67.683-11.029l0.852-0.428l-1.06,12.866c-0.907,10.345-8.701,18.765-18.946,20.467
			l-31.675,5.362c-1.776,0.28-3.584,0.301-5.367,0.062l-55.192-7.917c-5.073-0.782-10.235,0.691-14.13,4.034
			c-3.895,3.343-6.136,8.221-6.133,13.354v13.654c0.01,1.514-0.595,2.968-1.675,4.029l-1.887,1.883
			c-5.155,5.186-7.508,12.531-6.327,19.747s5.754,13.427,12.294,16.699c2.448,1.212,5.097,1.966,7.817,2.225l26.483,2.733
			c13.004,1.288,25.981,1.931,38.929,1.929c34.772,0.005,69.388-4.654,102.921-13.854l3.337-0.879
			c26.099-7.28,44.154-31.054,44.159-58.15c-0.013-24.301,8.239-47.884,23.4-66.875l21.413-26.892
			c0.839,1.648,1.631,3.367,2.367,5.17c0.332,0.813,0.709,1.607,1.011,2.434c1.178,3.197,2.122,6.475,2.822,9.809
			c3.274,14.636,14.083,26.429,28.379,30.963l0.163,0.043l0.099,0.04c0.093,0.031,0.179,0.028,0.272,0.058
			c7.053,2.278,14.571,2.717,21.841,1.275c5.096-1.025,10.129-2.295,15.127-3.675c1.445-0.397,2.883-0.81,4.315-1.237
			c4.445-1.326,8.849-2.757,13.188-4.356c0.984-0.363,1.961-0.737,2.94-1.113c4.237-1.63,8.399-3.413,12.509-5.296
			c1.382-0.634,2.756-1.282,4.124-1.942c4.617-2.235,9.173-4.573,13.591-7.119l0.015-0.008l0.006-0.005
			c6.629-3.815,13.04-7.998,19.202-12.528l0.292-0.221l0.233-0.162c2.4-1.771,4.608-3.493,6.88-5.231
			c1.438-1.1,2.966-2.223,4.353-3.309l0.193-0.147c1.954-1.533,3.72-3.014,5.568-4.517c1.551-1.261,3.191-2.547,4.668-3.788
			c2.084-1.751,3.966-3.443,5.898-5.149c1.109-0.98,2.321-1.99,3.38-2.955c2.909-2.651,5.623-5.241,8.143-7.771
			c1.805-1.846,3.498-3.798,5.07-5.845c0.115-0.147,0.228-0.277,0.342-0.427c1.696-2.21,3.376-4.671,5.029-7.322l0.203-0.322
			c14.465-24.935,21.958-53.301,21.694-82.126C504.485,149.517,454.864,0,267.073,0c-1.385,0-3.161,0.023-5.151,0.069
			C178.655,1.499,29.664,37.944,29.664,168.567c0.024,4.148-0.523,8.28-1.625,12.279c-3.464,11.395-0.222,23.77,8.383,32.004
			c4.438,4.06,7.04,9.745,7.212,15.758c-8.634,4.872-17.942,8.437-27.621,10.579C12.218,240.14,9.555,243.552,9.552,247.467z
			 M255.819,361.604c-17.574,22.015-27.14,49.352-27.129,77.521c0.02,19.385-12.865,36.415-31.525,41.667l-3.329,0.879
			c-44.149,12.12-90.154,15.994-135.708,11.429l-26.475-2.733c-0.66-0.048-1.305-0.22-1.9-0.508c-1.653-0.82-2.807-2.39-3.096-4.212
			c-0.304-1.787,0.275-3.611,1.554-4.896l1.887-1.888c4.284-4.261,6.687-10.058,6.675-16.1l0.667-14.167l55.417,7.95
			c3.471,0.465,6.992,0.42,10.45-0.133l31.75-5.375c17.927-3.005,31.545-17.765,33.1-35.875l1.912-23.217l8.708-4.388
			c1.68-0.89,3.282-1.919,4.792-3.075c0.597-0.443,1.154-0.916,1.717-1.396c0.906-0.784,1.77-1.615,2.586-2.492
			c0.509-0.543,1.047-1.05,1.517-1.627c1.018-1.235,1.945-2.544,2.772-3.915c0.093-0.157,0.156-0.327,0.246-0.485
			c0.281-0.491,0.514-1.007,0.769-1.515c0.665-1.316,1.239-2.675,1.719-4.069c0.122-0.354,0.321-0.664,0.432-1.023
			c0.051-0.163,0.053-0.33,0.101-0.494c0.471-1.645,0.812-3.324,1.021-5.022c0.111-0.845,0.156-1.682,0.199-2.528
			c0.047-0.982,0.037-1.961-0.003-2.944c-0.052-1.348-0.189-2.691-0.411-4.022c-0.176-1.063-0.373-2.12-0.654-3.165
			c-0.229-0.843-0.495-1.668-0.793-2.495c-0.439-1.22-0.951-2.412-1.532-3.571c-0.209-0.42-0.321-0.868-0.549-1.281l-2.996-5.417
			l10.21-5.132c0.319-0.16,0.662-0.237,0.986-0.381c4.546-2.006,9.642-2.396,14.441-1.103c0.428,0.116,0.864,0.154,1.288,0.296
			c14.037,4.669,29.507,1.002,39.954-9.471l1.735-1.741l0.007-0.005l0.046-0.048l1.654-1.66c0.558-0.567,1.086-1.151,1.583-1.754
			l2.27,0.57l0.092,0.055c0.108,0.065,0.222,0.119,0.333,0.179c0.977,0.566,2.641,1.631,4.712,3.134
			c1.283,0.959,2.661,2.021,4.255,3.416c1.061,0.92,2.177,1.966,3.239,2.961c0.476,0.458,0.951,0.927,1.434,1.418
			c0.302,0.313,0.625,0.653,1.04,1.108c0.521,0.521,0.992,1.042,1.562,1.675L255.819,361.604z M149.952,218.783
			c-1.026-1.024-1.935-2.203-2.911-3.293c-1.245-1.378-2.523-2.731-3.669-4.175c-2.042-2.62-3.934-5.355-5.665-8.191l28.612-14.379
			c2.536-1.278,5.264-2.135,8.075-2.537l17.442-2.504c0.088,0.232,0.246,0.428,0.338,0.658c1.056,2.688,2.377,5.263,3.945,7.688
			l0.942,1.421c1.265,1.896,2.68,3.688,4.232,5.357c0.229,0.247,0.5,0.449,0.734,0.691c1.342,1.402,2.778,2.712,4.297,3.92
			l0.141,0.128l-13.542,10.208c-8.793,6.68-13.967,17.078-13.992,28.121v27.9c-1.269-0.617-2.504-1.302-3.699-2.052
			c-0.598-0.367-1.21-0.708-1.787-1.105c-0.967-0.656-1.88-1.374-2.778-2.108c-0.926-0.767-1.816-1.574-2.669-2.42
			c-0.6-0.59-1.215-1.165-1.775-1.791c-1.432-1.587-2.734-3.287-3.894-5.083c-0.065-0.102-0.11-0.216-0.174-0.319
			c-1.089-1.775-2.037-3.632-2.835-5.556c-0.234-0.557-0.429-1.132-0.638-1.701c-0.578-1.579-1.053-3.194-1.423-4.835
			c-0.14-0.619-0.299-1.231-0.41-1.86c-0.417-2.246-0.637-4.525-0.656-6.81l-0.015-0.152
			C156.199,228.308,153.96,222.834,149.952,218.783z M195.998,241.896c0.011-5.691,2.675-11.051,7.204-14.496l20.807-15.684
			c6.029,1.334,12.277,1.341,18.309,0.022l46.158-10.313c9.397-2.096,19.181,1.184,25.416,8.52l37.342,43.788
			c4.4,5.171,6.816,11.739,6.817,18.529c-0.007,1.88-0.146,3.757-0.415,5.617c-0.056,0.407-0.157,0.802-0.225,1.206
			c-0.25,1.512-0.586,3.008-1.007,4.482c-0.09,0.312-0.196,0.618-0.293,0.927c-0.517,1.65-1.139,3.265-1.86,4.836l-0.139,0.305
			c-0.838,1.772-1.799,3.482-2.876,5.119l-0.001,0.002c-1.429,2.147-3.054,4.157-4.854,6.005c-0.205,0.209-0.417,0.41-0.626,0.614
			c-1.749,1.755-3.661,3.34-5.711,4.733c-4.384,2.944-9.306,4.994-14.483,6.033l-32.623,6.556c-4.338-4.836-9.19-9.186-14.47-12.972
			l-0.332-0.251l-0.535-0.367c-0.249-0.173-0.516-0.369-0.754-0.531c-0.331-0.232-0.7-0.488-0.832-0.577
			c-0.361-0.242-0.685-0.422-1.025-0.641c-0.33-0.21-0.618-0.39-0.913-0.572c-0.251-0.151-0.51-0.337-0.766-0.479l-0.251-0.137
			c-0.396-0.233-0.703-0.41-0.997-0.573l-0.594-0.357c-0.069-0.041-0.152-0.053-0.222-0.092l-0.341-0.179
			c-0.292-0.127-0.591-0.238-0.895-0.332c-0.277-0.133-0.561-0.25-0.851-0.352l-2.29-0.573c-0.148-2.341-0.639-4.649-1.456-6.848
			c-3.137-8.645-11.065-14.637-20.238-15.296l-49.18-3.804L195.998,241.896z M405.723,320.046l12.287-18.525
			c15.371-23.125,37.989-40.49,64.3-49.367l3.325-1.117c-0.501,3.433-1.117,6.768-1.808,10.019l-0.218,1
			c-0.699,3.181-1.469,6.283-2.322,9.264l-0.055,0.18c-2.294,8.071-5.355,15.904-9.139,23.393c-0.316,0.614-0.62,1.263-0.94,1.857
			c-0.859,1.605-1.735,3.077-2.615,4.521c-0.687,1.119-1.378,2.202-2.078,3.228c-0.672,0.995-1.344,1.985-2.018,2.88
			c-1.351,1.826-2.819,3.563-4.394,5.199c-4.74,4.765-10.265,9.791-16.524,15.041c-0.823,0.69-1.759,1.415-2.608,2.113
			c-2.365,1.946-4.731,3.892-7.29,5.896c-1.403,1.097-2.953,2.238-4.413,3.352c-2.126,1.623-4.202,3.231-6.447,4.887
			c-2.798,2.06-5.658,4.047-8.578,5.961l-5.631-19.809L405.723,320.046z M330.519,377.495c-8.921-3.188-15.535-10.796-17.451-20.074
			c-0.086-0.375-0.245-0.721-0.336-1.094c-1.879-7.837-4.846-15.373-8.814-22.388l-0.017-0.035l25.021-5.029
			c7.37-1.479,14.376-4.397,20.617-8.588c2.07-1.394,4.048-2.921,5.92-4.571c0.163-0.144,0.306-0.312,0.467-0.458
			c1.743-1.562,3.389-3.229,4.93-4.991l28.399,14.274l9.724,34.205c-0.627,0.333-1.239,0.688-1.87,1.015
			c-2.459,1.278-4.961,2.469-7.473,3.642c-2.377,1.108-4.777,2.171-7.198,3.188c-2.53,1.061-5.068,2.106-7.645,3.063
			c-1.739,0.647-3.501,1.24-5.259,1.841c-2.506,0.852-5.03,1.658-7.573,2.418c-0.845,0.252-1.692,0.498-2.54,0.739
			c-0.741,0.209-1.476,0.435-2.22,0.636c-3.473,0.939-6.98,1.788-10.519,2.549c-0.602,0.129-1.196,0.289-1.799,0.413h-8.527
			c-1.069,0-1.93-0.056-2.744-0.131C332.57,377.97,331.537,377.761,330.519,377.495L330.519,377.495z M487.419,228.579
			c0,1.328-0.142,2.605-0.177,3.922l-10.352,3.47c-29.912,10.091-55.625,29.829-73.104,56.117l-10.274,15.489l-23.433-11.778
			c0.105-0.235,0.176-0.482,0.278-0.719c0.552-1.286,1.056-2.586,1.514-3.913c0.295-0.846,0.555-1.699,0.81-2.557
			c0.332-1.131,0.659-2.259,0.923-3.413c0.281-1.212,0.483-2.44,0.685-3.669c0.143-0.886,0.322-1.759,0.424-2.655
			c0.263-2.193,0.399-4.4,0.407-6.609c-0.001-10.848-3.863-21.341-10.896-29.6l-37.346-43.792
			c-10.333-12.154-26.548-17.584-42.117-14.104l-46.163,10.313c-4.614,1-9.415,0.713-13.877-0.83
			c-1.224-0.417-2.417-0.92-3.569-1.507c-0.176-0.09-0.358-0.168-0.532-0.262c-0.974-0.532-1.913-1.126-2.811-1.778
			c-0.28-0.201-0.577-0.376-0.85-0.588c-0.776-0.619-1.515-1.283-2.213-1.989c-0.29-0.285-0.609-0.534-0.886-0.834
			c-0.945-1.013-1.806-2.101-2.574-3.254l-0.004-0.004l-0.942-1.421c-0.909-1.392-1.679-2.87-2.297-4.413
			c-0.09-0.214-0.165-0.433-0.249-0.649c-0.606-1.575-1.065-3.203-1.37-4.863l-0.043-0.109c-0.275-1.497-0.419-3.015-0.432-4.536
			v-5.079c-0.022-6.96,2.731-13.642,7.65-18.567l0.813-0.813c7.203-7.257,11.616-16.822,12.462-27.013l8.066-97.253
			c18.933-2.129,31.612-2.252,32.133-2.252C441.364,17.067,487.419,155.421,487.419,228.579z M26.619,254.025
			c34.133-9.692,34.133-20.079,34.133-23.625c0.243-11.38-4.389-22.321-12.729-30.067c-3.883-3.891-5.257-9.63-3.558-14.858
			c1.528-5.505,2.291-11.195,2.267-16.908c0-104.389,105.924-136.831,170.889-146.925l-7.756,93.521
			c-0.512,6.18-3.187,11.981-7.554,16.383l-0.813,0.817c-8.111,8.114-12.652,19.127-12.617,30.6v3.926l-16.913,2.428
			c-4.636,0.663-9.133,2.074-13.317,4.179l-28.479,14.313c-0.617-1.643-1.306-3.26-1.821-4.937l-2.021-44.697
			c-0.011-0.248-0.131-0.458-0.163-0.7c-0.068-0.483-0.179-0.96-0.332-1.423c-0.472-1.561-1.4-2.946-2.665-3.976
			c-0.353-0.302-0.73-0.573-1.129-0.811c-0.538-0.299-1.108-0.537-1.698-0.71c-0.283-0.139-0.574-0.26-0.871-0.364
			c-0.167-0.032-0.323,0.025-0.49,0.003c-0.185-0.027-0.342-0.127-0.531-0.141c-0.475,0.011-0.947,0.062-1.413,0.154
			c-0.432,0.014-0.862,0.061-1.286,0.141c-0.984,0.358-1.94,0.789-2.86,1.29c-0.564,0.433-1.072,0.935-1.509,1.495
			c-0.247,0.237-0.479,0.49-0.694,0.756c-0.585,0.888-0.999,1.878-1.219,2.919l-0.036,0.086c-0.101,0.507-0.113,1.015-0.206,1.523
			c-5.148,26.942,0.765,54.823,16.406,77.356c0.738,1.101,1.46,2.216,2.233,3.28c0.931,1.259,1.893,2.491,2.884,3.711
			c2.04,2.571,4.208,5.038,6.496,7.391c0.156,0.158,0.28,0.339,0.437,0.497c0.334,0.367,0.611,0.783,0.819,1.234
			c0.094,0.14,0.18,0.286,0.259,0.435c0.231,0.576,0.353,1.191,0.359,1.812l0.005,0.031l0.001,0.013
			c0.021,2.674,0.233,5.343,0.636,7.986c0.079,0.552,0.146,1.102,0.241,1.649c0.42,2.417,0.999,4.804,1.732,7.146
			c0.204,0.654,0.444,1.288,0.671,1.932c0.707,2.015,1.527,3.988,2.458,5.91c0.318,0.653,0.647,1.292,0.989,1.931
			c0.976,1.808,2.05,3.563,3.215,5.255c0.436,0.636,0.858,1.273,1.32,1.891c1.407,1.883,2.929,3.678,4.557,5.374
			c0.383,0.397,0.778,0.776,1.173,1.162c9.38,9.333,21.768,15.034,34.958,16.089l52.783,4.084c2.534,0.158,4.725,1.822,5.558,4.221
			c0.536,1.504,0.532,3.148-0.014,4.649c-0.029,0.086-0.097,0.146-0.124,0.234l-0.028,0.1c-0.29,0.605-0.669,1.162-1.125,1.654
			c-0.122,0.126-0.186,0.216-0.356,0.388l-1.438,1.508l-1.841,1.85c-3.708,3.666-8.615,5.87-13.819,6.204
			c-0.864,0.135-1.736,0.217-2.61,0.245c-0.43-0.019-0.855-0.195-1.285-0.24c-1.614-0.121-3.209-0.42-4.757-0.892
			c-0.579-0.194-1.191-0.238-1.778-0.404c-8.627-2.462-17.844-1.828-26.052,1.793c-0.628,0.274-1.299,0.423-1.912,0.732l-0.041,0.02
			l-0.001,0.001l-2.719,1.366l-6.074,3.053l-9.361,4.702l-0.01,0.008l-50.153,25.205c-4.206,2.12-5.9,7.246-3.785,11.455
			c2.116,4.208,7.241,5.907,11.451,3.795l42.823-21.523l3.293,5.965c0.643,1.17,1.137,2.416,1.472,3.708
			c0.04,0.155,0.061,0.314,0.097,0.469c0.236,1.047,0.363,2.115,0.379,3.189c0.004,0.301,0.015,0.601,0.001,0.903
			c-0.046,1.013-0.191,2.019-0.435,3.004c-0.058,0.241-0.077,0.485-0.147,0.725c-0.358,1.22-0.862,2.392-1.503,3.49
			c-0.085,0.146-0.196,0.272-0.285,0.416c-0.667,1.05-1.455,2.018-2.347,2.885c-0.167,0.162-0.328,0.329-0.503,0.484
			c-0.933,0.828-1.956,1.549-3.048,2.151c-0.108,0.057-0.196,0.139-0.306,0.194l-27.392,13.767
			c-17.779,8.964-37.886,12.242-57.591,9.387l-12.821-1.842c-14.471-2.101-28.29-7.405-40.45-15.525
			c-2.586-1.741-3.699-4.989-2.725-7.95l2.934-8.834c6.698,1.875,13.882,0.705,19.638-3.2c10.158-6.417,14.11-19.288,9.304-30.3
			c-6.586-13.296-15.355-25.395-25.941-35.792c-3.447-3.45-6.597-7.184-9.417-11.163V254.025z"/>
	</g>
</g>
<g>
</g>
<g>
</g>
<g>
</g>
<g>
</g>
<g>
</g>
<g>
</g>
<g>
</g>
<g>
</g>
<g>
</g>
<g>
</g>
<g>
</g>
<g>
</g>
<g>
</g>
<g>
</g>
<g>
</g>
</svg>
