<svg id="_x33_0" enable-background="new 0 0 64 64" height="512" viewBox="0 0 64 64" width="512" xmlns="http://www.w3.org/2000/svg"><g><g><g><path d="m29.12 16c.56 0 1.1.22 1.5.62.38.38.88.57 1.38.57s1-.19 1.38-.57c.4-.4.94-.62 1.5-.62.04 0 .08 0 .12.01 1.11.06 2 .98 2 2.11v.88.88c0 1.08-.25 2.15-.74 3.11-.13.27-.27.52-.44.77l-.82 1.24h-3-3l-.82-1.24c-.17-.25-.31-.5-.44-.77-.49-.96-.74-2.03-.74-3.11v-.88-.88c0-.58.24-1.12.62-1.5.31-.3.7-.52 1.38-.61z" fill="#f0d0b4"/></g><g><path d="m36 44.71v2.29c0 1.1-.9 2-2 2h-3.29c-.41 0-.8-.14-1.1-.41-.04-.02-.08-.06-.11-.09-.32-.32-.5-.75-.5-1.21v-1.68c0-.4.12-.79.34-1.11l1.49-2.24c.38.46.94.74 1.56.74h1.61c.48 0 .92-.17 1.27-.46l.41.83c.21.41.32.87.32 1.34z" fill="#ecc19c"/></g><g><path d="m35 2c.55 0 1 .45 1 1v2c0 .55-.45 1-1 1h-6c-.55 0-1-.45-1-1v-2c0-.55.45-1 1-1z" fill="#f0d0b4"/></g><g><path d="m36 58v2c0 1.1-.9 2-2 2h-4c-1.1 0-2-.9-2-2v-2-.17c0-.53.21-1.04.59-1.42l.59-.59c.25.12.53.18.82.18h4c.29 0 .57-.06.82-.18l.59.59c.38.38.59.89.59 1.42z" fill="#ecc19c"/></g><g><path d="m35 15v1 .01c-.04-.01-.08-.01-.12-.01-.56 0-1.1.22-1.5.62-.38.38-.88.57-1.38.57s-1-.19-1.38-.57c-.4-.4-.94-.62-1.5-.62l-.12.01v-.01-1-4l1.11.55c.58.3 1.23.45 1.89.45s1.31-.15 1.89-.45l1.11-.55z" fill="#f0d0b4"/></g><g><path d="m35 7v4l-1.11.55c-.58.3-1.23.45-1.89.45s-1.31-.15-1.89-.45l-1.11-.55v-4-1h6z" fill="#f0d0b4"/></g><g><path d="m29 25h3 3l.03.21c.09.59.17 1.19.24 1.79.17 1.33.3 2.67.41 4.01.11 1.33.19 2.66.24 3.99.05 1.29.08 2.57.08 3.86v.14 2c0 .18-.02.36-.07.53-.11.4-.35.75-.66 1.01-.35.29-.79.46-1.27.46h-1.61c-.62 0-1.18-.28-1.56-.74-.13-.16-.24-.35-.32-.56l-.66-1.77-.35-.93-.74-1.98c-.25-.66-.43-1.33-.56-2.02-.13-.71-.2-1.43-.2-2.16 0-.56.04-1.12.12-1.68l.02-.16.57-4z" fill="#f0d0b4"/></g><g><path d="m36 52v2c0 .81-.49 1.51-1.18 1.82-.25.12-.53.18-.82.18h-4c-.29 0-.57-.06-.82-.18-.69-.31-1.18-1.01-1.18-1.82v-2-.39c0-.4.12-.79.34-1.11l1.26-1.9.01-.01c.3.27.69.41 1.1.41h3.29l1.41 1.41c.38.38.59.89.59 1.42z" fill="#ecc19c"/></g><g><path d="m35 6c.55 0 1-.45 1-1v-2c.38 0 .76.01 1.13.02 5.55.21 9.87 1.91 9.87 3.98 0 .73-.54 1.41-1.48 2-1.9-1.2-5.46-2-9.52-2-.34 0-1 0-1 0z" fill="#e6e9ed"/></g><g><path d="m29 7s-.66 0-1 0c-4.06 0-7.62.8-9.52 2-.94-.59-1.48-1.27-1.48-2 0-2.07 4.32-3.77 9.87-3.98.37-.01.75-.02 1.13-.02v2c0 .55.45 1 1 1z" fill="#e6e9ed"/></g><g><path d="m51 9c0 .19-.02.38-.07.56-.02.12-.06.24-.1.36-1.08 2.87-7.16 5.08-14.5 5.08-.45 0-1.33 0-1.33 0v-4h1c4.07 0 7.62-.8 9.52-2 .94-.59 1.48-1.27 1.48-2 0-2.07-4.32-3.77-9.87-3.98 7.6.23 13.87 2.83 13.87 5.98z" fill="#e6e9ed"/></g><g><path d="m54.4 17.27c2.82 1.45 4.6 3.48 4.6 5.73v.04c-.04 4.4-6.59 7.96-14.67 7.96-.45 0-8.47 0-8.47 0l-.18.01c-.11-1.34-.24-2.68-.41-4.01h.02 7.04c8.1 0 14.67-2.69 14.67-6 0-1.28-1.03-2.47-2.77-3.44.06-.09.12-.19.17-.29z" fill="#e6e9ed"/></g><g><path d="m54.23 17.56c1.74.97 2.77 2.16 2.77 3.44 0 3.31-6.57 6-14.67 6-.45 0-7.04 0-7.04 0h-.02c-.07-.6-.15-1.2-.24-1.79l-.03-.21.82-1.24c.17-.25.31-.5.44-.77l.01.01h4.06c6.46 0 11.94-2.28 13.9-5.44z" fill="#e6e9ed"/></g><g><path d="m50.94 9.56c2.5 1.43 4.06 3.34 4.06 5.44 0 .79-.21 1.55-.6 2.27-.05.1-.11.2-.17.29-1.96 3.16-7.44 5.44-13.9 5.44-.45 0-4.06 0-4.06 0l-.01-.01c.49-.96.74-2.03.74-3.11v-.88h1.33c8.1 0 14.67-2.69 14.67-6 0-1.13-.8-2.18-2.17-3.08.04-.12.08-.24.1-.36z" fill="#e6e9ed"/></g><g><path d="m35 15h1.33c7.34 0 13.42-2.21 14.5-5.08 1.37.9 2.17 1.95 2.17 3.08 0 3.31-6.57 6-14.67 6-.45 0-1.33 0-1.33 0v-.88c0-1.13-.89-2.05-2-2.11v-.01z" fill="#e6e9ed"/></g><g><path d="m18.48 9c1.9 1.2 5.45 2 9.52 2h1v4s-.88 0-1.33 0c-7.34 0-13.42-2.21-14.5-5.08-.04-.12-.08-.24-.1-.36-.05-.18-.07-.37-.07-.56 0-3.15 6.27-5.75 13.87-5.98-5.55.21-9.87 1.91-9.87 3.98 0 .73.54 1.41 1.48 2z" fill="#e6e9ed"/></g><g><path d="m27.67 15h1.33v1 .01c-.68.09-1.07.31-1.38.61-.38.38-.62.92-.62 1.5v.88s-.88 0-1.33 0c-8.1 0-14.67-2.69-14.67-6 0-1.13.8-2.18 2.17-3.08 1.08 2.87 7.16 5.08 14.5 5.08z" fill="#e6e9ed"/></g><g><path d="m27 19v.88c0 1.08.25 2.15.74 3.11l-.01.01s-3.61 0-4.06 0c-6.46 0-11.94-2.28-13.9-5.44-.06-.09-.12-.19-.17-.29-.39-.72-.6-1.48-.6-2.27 0-2.1 1.56-4.01 4.06-5.44h.01c.02.12.06.24.1.36-1.37.9-2.17 1.95-2.17 3.08 0 3.31 6.57 6 14.67 6z" fill="#e6e9ed"/></g><g><path d="m28.18 23.76.82 1.24-.29 2s-6.59 0-7.04 0c-8.1 0-14.67-2.69-14.67-6 0-1.28 1.03-2.47 2.77-3.44 1.96 3.16 7.44 5.44 13.9 5.44h4.06l.01-.01c.13.27.27.52.44.77z" fill="#e6e9ed"/></g><g><path d="m9.77 17.56c-1.74.97-2.77 2.16-2.77 3.44 0 3.31 6.57 6 14.67 6h7.04l-.57 4s-8.02 0-8.47 0c-8.08 0-14.63-3.56-14.67-7.96 0-.01 0-.03 0-.04 0-2.25 1.78-4.28 4.6-5.73.05.1.11.2.17.29z" fill="#e6e9ed"/></g><g><path d="m28.2 35c-2.53 0-10.16 0-10.53 0-7.48 0-13.66-3.05-14.55-7-.08-.33-.12-.66-.12-1 0-1.44.73-2.79 2-3.96.04 4.4 6.59 7.96 14.67 7.96h8.47l-.02.16c-.08.56-.12 1.12-.12 1.68 0 .73.07 1.45.2 2.16z" fill="#e6e9ed"/></g><g><path d="m61 27c0 .34-.04.67-.12 1-.89 3.95-7.07 7-14.55 7-.36 0-7.77 0-10.41 0-.05-1.33-.13-2.66-.24-3.99l.18-.01h8.47c8.08 0 14.63-3.56 14.67-7.96 1.27 1.17 2 2.52 2 3.96z" fill="#e6e9ed"/></g><g><path d="m62 31c0 1.74-1.02 3.36-2.76 4.66-.98.75-2.18 1.4-3.56 1.92-2.37.89-5.25 1.42-8.35 1.42-.25 0-4.57 0-8.23 0-1.15 0-2.23 0-3.1 0v-.14c0-1.29-.03-2.57-.08-3.86h10.41c7.48 0 13.66-3.05 14.55-7h.01c.71.93 1.11 1.94 1.11 3z" fill="#e6e9ed"/></g><g><path d="m3.12 28c.89 3.95 7.07 7 14.55 7h10.53c.13.69.31 1.36.56 2.02l.74 1.98c-.84 0-2.62 0-4.6 0-3.66 0-7.98 0-8.23 0-3.1 0-5.98-.53-8.35-1.42-1.38-.52-2.58-1.17-3.56-1.92-1.74-1.3-2.76-2.92-2.76-4.66 0-1.06.4-2.07 1.11-3z" fill="#e6e9ed"/></g><g><path d="m24.9 39h4.6l.35.93-2.27 2.03c-5.04 4.54-11.55 7.04-18.33 7.04-4 0-7.25-3.25-7.25-7.25 0-1.56.51-3.1 1.45-4.35l1.3-1.73.01-.01c.98.75 2.18 1.4 3.56 1.92l-1.67 2.22c-.42.56-.65 1.25-.65 1.95 0 1.79 1.46 3.25 3.25 3.25 5.79 0 11.35-2.13 15.65-6z" fill="#ccd1d9"/></g><g><path d="m60.55 37.4c.94 1.25 1.45 2.79 1.45 4.35 0 4-3.25 7.25-7.25 7.25-6.78 0-13.29-2.5-18.33-7.04l-.49-.43c.05-.17.07-.35.07-.53v-2h3.1c4.3 3.87 9.86 6 15.65 6 1.79 0 3.25-1.46 3.25-3.25 0-.7-.23-1.39-.65-1.95l-1.67-2.22c1.38-.52 2.58-1.17 3.56-1.92l.01.01z" fill="#ccd1d9"/></g></g><path d="m60.616 35.82c1.507-1.386 2.384-3.032 2.384-4.82 0-1.12-.371-2.201-1.066-3.226.036-.255.066-.512.066-.774 0-1.559-.708-3.075-2.036-4.407-.167-2.176-1.662-4.179-4.284-5.741.209-.596.32-1.215.32-1.852 0-2.227-1.426-4.319-4.005-5.953 0-.016.005-.031.005-.047 0-4.158-7.325-6.723-14.794-6.975-.159-.006-.318-.008-.477-.012-.345-.602-.987-1.013-1.729-1.013h-6c-.742 0-1.384.411-1.729 1.013-.159.004-.319.006-.477.012-7.469.252-14.794 2.817-14.794 6.975 0 .016.005.031.005.047-2.579 1.634-4.005 3.726-4.005 5.953 0 .637.111 1.256.32 1.852-2.621 1.562-4.116 3.565-4.284 5.741-1.328 1.332-2.036 2.848-2.036 4.407 0 .262.03.519.066.775-.695 1.024-1.066 2.105-1.066 3.225 0 1.788.877 3.434 2.384 4.82l-.735.98c-1.064 1.42-1.649 3.178-1.649 4.95 0 4.549 3.701 8.25 8.25 8.25 7.03 0 13.779-2.59 19.004-7.293l1.173-1.055.151.402c.021.057.052.108.076.163l-1.149 1.723c-.331.495-.505 1.07-.505 1.665v1.688c0 .482.136.94.371 1.347l-.867 1.3c-.216.323-.358.684-.435 1.06h-2.069v2h2v1c0 .731.273 1.393.709 1.914-.27.322-.465.689-.579 1.086h-2.13v2h2v1c0 1.654 1.346 3 3 3h4c1.654 0 3-1.346 3-3v-1h2v-2h-2.13c-.114-.398-.309-.764-.579-1.086.436-.521.709-1.183.709-1.914v-1h2v-2h-2.13c-.139-.482-.384-.929-.749-1.293l-.322-.322c.725-.548 1.201-1.408 1.201-2.385v-2.292c0-.362-.065-.72-.162-1.07 5.057 4.111 11.362 6.362 17.912 6.362 4.549 0 8.25-3.701 8.25-8.25 0-1.772-.585-3.53-1.649-4.949zm.384-4.82c0 3.794-6.258 7-13.667 7h-10.348c-.006-.666-.016-1.333-.036-2h9.385c6.731 0 12.331-2.324 14.588-5.679.048.225.078.452.078.679zm-4.45 9.399c.29.388.45.868.45 1.351 0 1.24-1.009 2.25-2.25 2.25-4.587 0-9.011-1.417-12.74-4h5.324c2.943 0 5.664-.452 7.992-1.232zm-21.55 4.309v2.292c0 .552-.449 1-1 1h-3.293c-.189 0-.366-.073-.5-.207-.133-.134-.207-.312-.207-.5v-1.688c0-.198.058-.39.168-.555l.905-1.357c.402.198.849.307 1.313.307h1.614c.283 0 .551-.052.811-.125.12.261.189.546.189.833zm0 9.292c0 .552-.449 1-1 1h-4c-.551 0-1-.448-1-1v-2.395c0-.198.058-.39.168-.555l.781-1.171c.245.071.496.12.758.12h2.879l1.121 1.121c.186.188.293.445.293.708zm-25.487-35.101c2.489 3.04 7.818 5.101 14.154 5.101h3.497c.063.105.112.216.18.318l.612.919-.109.763h-6.181c-8.053 0-13.666-2.635-13.666-5 0-.683.536-1.413 1.513-2.101zm16.154-.899c-8.054 0-13.667-2.635-13.667-5 0-.601.398-1.151.89-1.606 2.015 2.632 7.32 4.451 13.969 4.589-.503.531-.816 1.237-.847 2.017zm8.333-11v3.382l-.552.276c-.896.447-2 .447-2.895 0l-.553-.276v-3.382zm3-2.98c.052.001.106.002.158.003 5.36.213 8.842 1.861 8.842 2.977 0 .255-.192.539-.538.826-2.066-1.074-5.232-1.73-8.75-1.809.179-.299.288-.644.288-1.017zm14.11 7.374c.492.455.89 1.005.89 1.606 0 2.365-5.613 5-13.667 5h-.346c-.031-.78-.344-1.486-.847-2.017 6.65-.138 11.954-1.957 13.97-4.589zm2.89 3.606c0 3.794-6.258 7-13.667 7h-2.631c.178-.648.279-1.318.289-2h.342c8.157 0 14.465-2.513 15.5-5.989.102.328.167.658.167.989zm4 8c0 3.794-6.258 7-13.667 7h-7.753c-.061-.668-.121-1.335-.195-2h5.948c8.149 0 14.452-2.509 15.497-5.979.102.325.17.652.17.979zm-28.465 1-.527-.791c-.659-.989-1.008-2.14-1.008-3.329v-1.759c0-.618.503-1.121 1.121-1.121.3 0 .581.117.793.328 1.114 1.114 3.058 1.114 4.172 0 .212-.211.493-.328.793-.328.618 0 1.121.503 1.121 1.121v1.759c0 1.188-.349 2.34-1.008 3.329l-.527.791zm24.952-5.101c.977.688 1.513 1.418 1.513 2.101 0 2.365-5.613 5-13.667 5h-6.197c-.034-.253-.059-.507-.095-.759l.615-.922c.068-.102.117-.214.18-.318h3.497c6.336-.001 11.665-2.062 14.154-5.102zm-21.815-2.985c-.359.359-.984.359-1.344 0-.375-.375-.833-.629-1.328-.774v-2.547c.633.262 1.316.407 2 .407s1.366-.145 2-.406v2.546c-.495.145-.953.399-1.328.774zm3.328-7.914c2.685 0 5.209.37 7.096.998-1.74.575-4.176 1.002-7.096 1.002zm-9-3.98v.98c0 .373.109.718.287 1.017-3.517.079-6.684.735-8.75 1.809-.345-.287-.537-.571-.537-.826 0-1.116 3.482-2.764 8.842-2.976.052-.002.106-.002.158-.004zm1 3.98v2c-2.92 0-5.356-.427-7.096-1.002 1.887-.628 4.411-.998 7.096-.998zm1 24.845c0-.513.037-1.031.109-1.54l.758-5.305h4.254c.577 4.252.879 8.572.879 12.857v2.143c0 .552-.449 1-1 1h-1.614c-.415 0-.791-.261-.937-.649l-1.756-4.683c-.46-1.228-.693-2.514-.693-3.823zm30.508-7.599c.289.519.492 1.107.492 1.754 0 3.794-6.258 7-13.667 7h-9.47c-.033-.667-.06-1.334-.107-2h7.577c7.428 0 13.477-2.83 15.175-6.754zm-9.508-16.246c0 2.365-5.613 5-13.667 5h-.333v-2c5.963 0 12-1.717 12-5 0-.158-.026-.309-.053-.46 1.303.771 2.053 1.632 2.053 2.46zm-21-6h6l.001 2h-6.001zm-12.947 3.54c-.027.151-.053.302-.053.46 0 3.283 6.037 5 12 5v2h-.333c-8.054 0-13.667-2.635-13.667-5 0-.828.75-1.689 2.053-2.46zm-5.886 7.471c1.035 3.476 7.343 5.989 15.5 5.989h.342c.01.682.11 1.352.289 2h-2.631c-7.409 0-13.667-3.206-13.667-7 0-.331.065-.661.167-.989zm-3.997 8.01c1.044 3.47 7.347 5.979 15.497 5.979h5.895l-.286 2h-7.609c-7.409 0-13.667-3.206-13.667-7 0-.327.068-.654.17-.979zm-1.678 3.225c1.698 3.924 7.747 6.754 15.175 6.754h7.364c-.019.282-.031.564-.031.845 0 .387.017.772.052 1.155h-9.385c-7.409 0-13.667-3.206-13.667-7 0-.647.203-1.235.492-1.754zm-1.414 5.075c2.257 3.355 7.858 5.679 14.589 5.679h9.735c.117.462.25.92.419 1.37l.236.63h-11.39c-7.409 0-13.667-3.206-13.667-7 0-.227.03-.453.078-.679zm4.372 10.079 1.225-1.632c2.328.78 5.048 1.232 7.992 1.232h5.324c-3.729 2.583-8.153 4-12.74 4-1.242 0-2.251-1.01-2.251-2.25 0-.483.16-.963.45-1.35zm19.466.821c-4.857 4.372-11.131 6.779-17.666 6.779-3.446 0-6.25-2.804-6.25-6.25 0-1.343.444-2.675 1.25-3.75l.724-.966c.547.35 1.131.68 1.769.976l-.893 1.19c-.548.731-.85 1.636-.85 2.55 0 2.344 1.907 4.25 4.25 4.25 5.9 0 11.562-2.136 16.006-6h3.017zm8.084 18.779c0 .552-.449 1-1 1h-4c-.551 0-1-.448-1-1v-2.172c0-.263.107-.521.293-.707l.175-.175c.173.031.35.054.532.054h4c.182 0 .359-.023.532-.054l.175.175c.186.187.293.444.293.707zm19.75-12c-6.535 0-12.809-2.407-17.666-6.779l-.097-.088c.002-.045.013-.087.013-.133v-1h1.744c4.444 3.864 10.106 6 16.006 6 2.343 0 4.25-1.906 4.25-4.25 0-.914-.302-1.819-.85-2.551l-.892-1.189c.637-.296 1.222-.626 1.769-.976l.723.966c.806 1.075 1.25 2.407 1.25 3.75 0 3.446-2.804 6.25-6.25 6.25z"/></g></svg>